<svg id="IconYT" xmlns="http://www.w3.org/2000/svg" width="42.612" height="29.962" viewBox="0 0 42.612 29.962">
  <path id="Icon_awesome-youtube" data-name="Icon awesome-youtube" d="M42.772,9.188A5.354,5.354,0,0,0,39,5.4c-3.323-.9-16.648-.9-16.648-.9s-13.325,0-16.648.9A5.354,5.354,0,0,0,1.94,9.188c-.89,3.345-.89,10.323-.89,10.323s0,6.978.89,10.323a5.274,5.274,0,0,0,3.767,3.731c3.323.9,16.648.9,16.648.9s13.325,0,16.648-.9a5.275,5.275,0,0,0,3.767-3.731c.89-3.345.89-10.323.89-10.323s0-6.978-.89-10.323ZM18,25.847V13.175l11.137,6.336L18,25.847Z" transform="translate(-1.05 -4.5)" fill="#f4f6f8"/>
</svg>
