<svg id="IconInsta" xmlns="http://www.w3.org/2000/svg" width="33.094" height="33.087" viewBox="0 0 33.094 33.087">
  <path id="Icon_awesome-instagram" data-name="Icon awesome-instagram" d="M16.545,10.3a8.483,8.483,0,1,0,8.483,8.483A8.47,8.47,0,0,0,16.545,10.3Zm0,14a5.515,5.515,0,1,1,5.515-5.515A5.525,5.525,0,0,1,16.545,24.3ZM27.354,9.951a1.979,1.979,0,1,1-1.979-1.979A1.974,1.974,0,0,1,27.354,9.951Zm5.618,2.008A9.792,9.792,0,0,0,30.3,5.027a9.856,9.856,0,0,0-6.933-2.673c-2.732-.155-10.919-.155-13.651,0A9.842,9.842,0,0,0,2.784,5.019,9.824,9.824,0,0,0,.111,11.952c-.155,2.732-.155,10.919,0,13.651a9.792,9.792,0,0,0,2.673,6.933,9.869,9.869,0,0,0,6.933,2.673c2.732.155,10.919.155,13.651,0A9.792,9.792,0,0,0,30.3,32.535,9.856,9.856,0,0,0,32.972,25.6c.155-2.732.155-10.912,0-13.644ZM29.443,28.534A5.584,5.584,0,0,1,26.3,31.679c-2.178.864-7.346.664-9.753.664s-7.582.192-9.753-.664a5.584,5.584,0,0,1-3.145-3.145c-.864-2.178-.664-7.346-.664-9.753s-.192-7.582.664-9.753A5.584,5.584,0,0,1,6.793,5.883c2.178-.864,7.346-.664,9.753-.664s7.582-.192,9.753.664a5.584,5.584,0,0,1,3.145,3.145c.864,2.178.664,7.346.664,9.753S30.307,26.363,29.443,28.534Z" transform="translate(0.005 -2.237)" fill="#f4f6f8"/>
</svg>
