<svg xmlns="http://www.w3.org/2000/svg" xmlns:xlink="http://www.w3.org/1999/xlink" width="23.821" height="26.535" viewBox="0 0 23.821 26.535">
  <defs>
    <linearGradient id="linear-gradient" x1="-1.545" y1="1.697" x2="-1.468" y2="1.697" gradientUnits="objectBoundingBox">
      <stop offset="0" stop-color="#00a0ff"/>
      <stop offset="0.007" stop-color="#00a1ff"/>
      <stop offset="0.26" stop-color="#00beff"/>
      <stop offset="0.512" stop-color="#00d2ff"/>
      <stop offset="0.76" stop-color="#00dfff"/>
      <stop offset="1" stop-color="#00e3ff"/>
    </linearGradient>
    <linearGradient id="linear-gradient-2" x1="-3.237" y1="4.007" x2="-3.139" y2="4.007" gradientUnits="objectBoundingBox">
      <stop offset="0" stop-color="#ffe000"/>
      <stop offset="0.409" stop-color="#ffbd00"/>
      <stop offset="0.775" stop-color="orange"/>
      <stop offset="1" stop-color="#ff9c00"/>
    </linearGradient>
    <linearGradient id="linear-gradient-3" x1="-1.225" y1="2.333" x2="-1.165" y2="2.333" gradientUnits="objectBoundingBox">
      <stop offset="0" stop-color="#ff3a44"/>
      <stop offset="1" stop-color="#c31162"/>
    </linearGradient>
    <linearGradient id="linear-gradient-4" x1="-1.225" y1="3.333" x2="-1.165" y2="3.333" gradientUnits="objectBoundingBox">
      <stop offset="0" stop-color="#32a071"/>
      <stop offset="0.068" stop-color="#2da771"/>
      <stop offset="0.476" stop-color="#15cf74"/>
      <stop offset="0.801" stop-color="#06e775"/>
      <stop offset="1" stop-color="#00f076"/>
    </linearGradient>
  </defs>
  <g id="iconGooglePlay" transform="translate(-3748.094 -16142.867)">
    <path id="path70" d="M24.681-51.471a2.07,2.07,0,0,0-.477,1.449h0v22.815a2.069,2.069,0,0,0,.477,1.449h0l.076.074L37.539-38.463v-.3L24.757-51.546Z" transform="translate(3723.89 16194.748)" fill="url(#linear-gradient)"/>
    <path id="path94" d="M39.869-37.277v.3l4.26,4.263.1-.055,5.048-2.868c1.441-.82,1.441-2.161,0-2.979h0l-5.048-2.869-.1-.055Z" transform="translate(3721.561 16193.26)" fill="url(#linear-gradient-2)"/>
    <path id="path114" d="M24.764-23.5a1.681,1.681,0,0,0,2.145.064h0L41.979-32l-4.357-4.358Z" transform="translate(3723.807 16192.489)" fill="url(#linear-gradient-3)"/>
    <path id="path140" d="M24.764-51.529,37.622-38.672l4.357-4.358-15.07-8.562a2.369,2.369,0,0,0-1.156-.348h0a1.321,1.321,0,0,0-.988.411" transform="translate(3723.807 16194.807)" fill="url(#linear-gradient-4)"/>
    <path id="path158" d="M-2.99,0-17.965,8.508a1.718,1.718,0,0,1-2.067.011l-.076.077.076.074h0a1.718,1.718,0,0,0,2.067-.011L-2.895.1Z" transform="translate(3768.681 16160.396)"/>
    <path id="path174" d="M-.083-.253A2.066,2.066,0,0,1-.561-1.7v.151A2.066,2.066,0,0,0-.083-.1l.077-.076Z" transform="translate(3748.655 16169.096)"/>
    <path id="path190" d="M-.9-.234-6.042,2.689l.1.1L-.9-.083A1.809,1.809,0,0,0,.183-1.572,1.92,1.92,0,0,1-.9-.234" transform="translate(3771.732 16157.706)"/>
    <path id="path206" d="M-.458-.087,19.66,11.343a1.917,1.917,0,0,1,1.081,1.339,1.808,1.808,0,0,0-1.081-1.49L-.458-.238C-1.9-1.057-3.079-.377-3.079,1.275v.151C-3.079-.225-1.9-.906-.458-.087" transform="translate(3751.174 16143.452)" fill="#fff"/>
  </g>
</svg>
