<svg xmlns="http://www.w3.org/2000/svg" width="25.784" height="30.682" viewBox="0 0 25.784 30.682">
  <path id="iconApple" d="M21.838,18.464a6.4,6.4,0,0,1,3.425-5.809,7.36,7.36,0,0,0-5.8-3.055c-2.432-.192-5.09,1.418-6.062,1.418-1.028,0-3.384-1.349-5.233-1.349C4.343,9.73.281,12.717.281,18.793a17.073,17.073,0,0,0,.986,5.562c.877,2.514,4.042,8.679,7.343,8.576,1.726-.041,2.946-1.226,5.192-1.226,2.178,0,3.309,1.226,5.233,1.226,3.329-.048,6.192-5.651,7.028-8.172a6.79,6.79,0,0,1-4.226-6.3ZM17.961,7.216A6.452,6.452,0,0,0,19.605,2.25a7.263,7.263,0,0,0-4.651,2.391A6.553,6.553,0,0,0,13.2,9.566a5.753,5.753,0,0,0,4.761-2.35Z" transform="translate(-0.281 -2.25)" fill="#fff"/>
</svg>
