<svg xmlns="http://www.w3.org/2000/svg" width="532" height="464.002" viewBox="0 0 532 464.002">
  <g id="ilustracaoBaixarApp" transform="translate(0)">
    <path id="Caminho_319" data-name="Caminho 319" d="M930.662,761.041V710.773S950.252,746.411,930.662,761.041Z" transform="translate(-434.892 -297.566)" fill="#f1f1f1"/>
    <path id="Caminho_320" data-name="Caminho 320" d="M916.144,768.173l-37.03-33.994S918.615,743.848,916.144,768.173Z" transform="translate(-419.164 -304.708)" fill="#f1f1f1"/>
    <path id="Caminho_321" data-name="Caminho 321" d="M404.968,205.615H402.9V148.934a32.806,32.806,0,0,0-32.806-32.806H250.006A32.806,32.806,0,0,0,217.2,148.934v310.96A32.806,32.806,0,0,0,250.006,492.7H370.094A32.806,32.806,0,0,0,402.9,459.894V245.962h2.069Z" transform="translate(-217.2 -116.128)" fill="#3f3d56"/>
    <path id="Caminho_322" data-name="Caminho 322" d="M375.392,128.411H359.716a11.639,11.639,0,0,1-10.776,16.035h-68.8a11.639,11.639,0,0,1-10.776-16.035H254.726a24.5,24.5,0,0,0-24.5,24.5v310.5a24.5,24.5,0,0,0,24.5,24.5H375.392a24.5,24.5,0,0,0,24.5-24.5h0V152.91a24.5,24.5,0,0,0-24.5-24.5Z" transform="translate(-221.175 -119.876)" fill="#fff"/>
    <circle id="Ellipse_44" data-name="Ellipse 44" cx="58.68" cy="58.68" r="58.68" transform="translate(35.204 122.846)" fill="#16e584"/>
    <path id="Caminho_323" data-name="Caminho 323" d="M361.912,373.342l-14.592,15.03a3.317,3.317,0,0,1-2.432.98h-.049a3.345,3.345,0,0,1-2.439-.98l-14.585-15.03c-.049-.056-.1-.1-.153-.153a3.225,3.225,0,0,1,.153-4.551,3.592,3.592,0,0,1,4.92,0l8.644,9.033V354.379a3.488,3.488,0,0,1,6.969,0v23.292l8.638-9.033a3.6,3.6,0,0,1,4.927,0l.153.153a3.231,3.231,0,0,1-.153,4.551Z" transform="translate(-250.64 -187.806)" fill="#fff"/>
    <path id="Caminho_324" data-name="Caminho 324" d="M584.738,638.852h-8.519l-4.052-32.859h12.573Z" transform="translate(-174.579 -184.9)" fill="#9f616a"/>
    <path id="Caminho_325" data-name="Caminho 325" d="M798.523,776.446H771.054V776.1a10.692,10.692,0,0,1,10.691-10.692h16.779Z" transform="translate(-386.192 -314.236)" fill="#2f2e41"/>
    <path id="Caminho_326" data-name="Caminho 326" d="M493.507,637.512l-8.23-2.2,4.572-32.791L502,605.768Z" transform="translate(-148.068 -183.841)" fill="#9f616a"/>
    <path id="Caminho_327" data-name="Caminho 327" d="M702.62,774.547l-26.537-7.1.09-.336a10.692,10.692,0,0,1,13.091-7.567h0l16.208,4.334Z" transform="translate(-357.215 -312.337)" fill="#2f2e41"/>
    <path id="Caminho_328" data-name="Caminho 328" d="M560.843,388.269l7.136,8.29L558.75,565.028H539.037L529.1,435.4,498.283,568.5l-20.493-5.026,18.634-169.064Z" transform="translate(-145.783 -118.469)" fill="#2f2e41"/>
    <path id="Caminho_329" data-name="Caminho 329" d="M725.111,343.549l19.628-9.845,30.183.531L800.9,347.526l-14.778,73.806,6.384,38.482h0a157.412,157.412,0,0,1-75.28.62l-.2-.047s14.672-52.058,8.426-67.945Z" transform="translate(-369.707 -182.515)" fill="#cbcbcb"/>
    <path id="Caminho_330" data-name="Caminho 330" d="M790.849,281.536a22.238,22.238,0,1,0,0,.165Z" transform="translate(-378.661 -159.837)" fill="#9f616a"/>
    <path id="Caminho_331" data-name="Caminho 331" d="M758.188,262.967a6.309,6.309,0,0,1,4.25-1.715c2.376-.077,5.936.767,7.451,2.7,1.218,1.552,1.276,3.688,1.281,5.661l.013,5.445a10.364,10.364,0,0,0,.755,4.726c.732,1.435,2.412,2.525,3.947,2.036,1.821-.58,2.621-3,4.482-3.435a3.266,3.266,0,0,1,3.444,1.993,8.644,8.644,0,0,1,.5,4.229c-.176,2.851-4.265,3.982-4.844,6.779-.335,1.618-1.508,4.846,0,4.169,6.949-.695,10-4.754,13.179-8.574l7.173-8.617a8.423,8.423,0,0,0,1.847-2.99,8.306,8.306,0,0,0,.19-2.384q-.059-3.213-.174-6.424c-.067-1.87-.538-4.23-2.37-4.615-.953-.2-2.214.149-2.717-.684a1.891,1.891,0,0,1-.086-1.328c.4-2.138,1.087-4.374.383-6.432-1.061-3.1-4.715-4.379-7.943-4.965s-6.853-1.09-8.879-3.67a28.152,28.152,0,0,0-1.762-2.477,6.918,6.918,0,0,0-3.3-1.666,18.261,18.261,0,0,0-12.008,1.066c-1.562.713-3.13,1.672-4.844,1.564-1.78-.113-3.3-1.365-5.056-1.67-2.838-.492-5.551,1.634-6.949,4.152-1.733,3.12-1.892,7.392.556,9.989,1.221,1.3,3.043,2.185,3.551,3.892.206.695.159,1.443.341,2.144a3.87,3.87,0,0,0,3.119,2.7A5.5,5.5,0,0,0,758.188,262.967Z" transform="translate(-378.197 -153.975)" fill="#2f2e41"/>
    <path id="Caminho_332" data-name="Caminho 332" d="M724.516,420.5a7.965,7.965,0,0,0,11.57,3.91l39.854,21.067,1.291-9.708L738.5,412.933a8.008,8.008,0,0,0-13.989,7.567Z" transform="translate(-371.82 -205.653)" fill="#9f616a"/>
    <path id="Caminho_333" data-name="Caminho 333" d="M776.76,422.231a7.965,7.965,0,0,1-12.145,1.284l-43.5,11.837.379-12.326,43.27-11.239a8.008,8.008,0,0,1,11.994,10.444Z" transform="translate(-370.955 -205.707)" fill="#9f616a"/>
    <path id="Caminho_334" data-name="Caminho 334" d="M809.239,354.127l8.481-.531s9.93,13.1,4.422,27.32c0,0,.954,51.073-21.038,48.975s-28.942-2.1-28.942-2.1l6.6-18.414,14.768-4.56s-4.552-20.078,4.064-28.432Z" transform="translate(-386.53 -188.584)" fill="#cbcbcb"/>
    <path id="Caminho_335" data-name="Caminho 335" d="M724.42,351.017l-1.2-6.145s-17.677-.415-21.173,26.372c0,0-15.9,40.089-.315,45.251s32.721,0,32.721,0l-1.291-17.679-17.145-3.5s8.857-11.458,4.034-21.4Z" transform="translate(-362.953 -185.922)" fill="#cbcbcb"/>
    <path id="Caminho_336" data-name="Caminho 336" d="M865.244,783.262H600.495a.695.695,0,0,1,0-1.39H865.244a.695.695,0,0,1,0,1.39Z" transform="translate(-333.939 -319.26)" fill="#cbcbcb"/>
  </g>
</svg>
