<svg xmlns="http://www.w3.org/2000/svg" width="475.444" height="351.132" viewBox="0 0 475.444 351.132">
  <g id="ilustracaoPrincipal" transform="translate(-0.01 0)">
    <path id="Caminho_135" data-name="Caminho 135" d="M531.247,380.167c-11.776,24.669-35.7,41.165-60.485,52.043A220.541,220.541,0,0,1,408.49,449.08q-6.163.743-12.366,1.152a236.269,236.269,0,0,1-31.733-.036q-9.533-.644-19-2.057a236.923,236.923,0,0,1-63.523-18.778q-8.752-4-17.15-8.736a219.106,219.106,0,0,1-26.807-17.8q-2.82-2.188-5.569-4.469l-.754-.626c-1.441-1.206-2.869-2.439-4.318-3.637a62.81,62.81,0,0,0-7.653-5.572c-.182-.108-.364-.216-.55-.32-.5-.293-1-.567-1.516-.828a34.465,34.465,0,0,0-3.254-1.458,42.049,42.049,0,0,0-16.166-2.579c-.922,0-1.844.063-2.771.126h0c-1.295.09-2.594.225-3.888.4l-.479.068a86.991,86.991,0,0,0-12.206,2.66c-6.181,1.8-12.251,4.051-18.36,6.081h0c-2.594.869-5.192,1.7-7.812,2.44l-.576.162a84.417,84.417,0,0,1-11.355,2.412A62.365,62.365,0,0,1,114.7,395.56l-.293-.085-.541-.162-.74-.234q-1.862-.594-3.693-1.3l-.74-.288q-1.774-.693-3.472-1.49l-.74-.342q-1.774-.837-3.472-1.769c-.408-.216-.811-.45-1.21-.671q-1.809-1.026-3.547-2.151-1.844-1.193-3.609-2.489-.816-.594-1.614-1.22a71.932,71.932,0,0,1-8.588-7.863c-.146-.149-.284-.3-.421-.45-.7-.774-1.4-1.562-2.066-2.368-.248-.3-.5-.594-.74-.9q-1.193-1.476-2.3-3.02c-.111-.149-.217-.3-.324-.45a65.373,65.373,0,0,1-7.48-13.728c-.062-.149-.12-.3-.173-.45q-.887-2.318-1.618-4.712c-.2-.666-.39-1.35-.559-2.016-.058-.2-.111-.4-.16-.6-2.447-9.78-2.727-19.948-2.727-30.057v-3.533c.071-16.352.319-32.982,2.7-49.109a2.08,2.08,0,0,1,.049-.333,155.414,155.414,0,0,1,3.241-16.122,120.177,120.177,0,0,1,5.458-16.338c5.467-13.052,13.417-24.93,22.244-35.939a200.94,200.94,0,0,1,36.415-35.557q2.926-2.174,5.932-4.222l.927-.617c.324-.221.647-.45.971-.644h0c.665-.45,1.33-.873,2-1.3l.754-.477,1.437-.9.443-.257.767-.45.758-.45q1.33-.8,2.691-1.557,5.813-3.29,11.9-6.013,1.8-.806,3.614-1.553a126.1,126.1,0,0,1,16.915-5.631q3.192-.819,6.424-1.44,3.813-.747,7.666-1.238a119.875,119.875,0,0,1,12.317-.932A124.838,124.838,0,0,1,290.4,159.328c9.045,7.309,17.172,15.965,27.33,21.568,8.868,4.879,19.247,6.9,28.744,3.061,7.848-3.173,12.955-4.748,21.77-4.267a180.129,180.129,0,0,1,53.343,11.324c.692.257,1.383.522,2.071.788,44.653,17.351,83.045,51.8,102.988,96.08q.789,1.755,1.538,3.538C540.084,319.617,544.376,352.676,531.247,380.167Z" transform="translate(-63.847 -99.616)" fill="#16e584" opacity="0.1"/>
    <path id="Caminho_136" data-name="Caminho 136" d="M152.586,314.559V485.213l-.576.162a84.422,84.422,0,0,1-11.355,2.412,62.365,62.365,0,0,1-25.986-2.124l-.293-.085-.541-.162-.74-.234q-1.862-.594-3.693-1.3l-.74-.288q-1.774-.693-3.472-1.49l-.74-.342q-1.774-.837-3.472-1.769c-.408-.216-.811-.45-1.21-.671q-1.809-1.026-3.547-2.151-1.844-1.193-3.609-2.489-.816-.594-1.614-1.22a71.939,71.939,0,0,1-8.588-7.863c-.146-.149-.284-.3-.421-.45-.7-.774-1.4-1.562-2.066-2.367-.248-.3-.5-.594-.74-.9q-1.193-1.476-2.3-3.02c-.111-.149-.217-.3-.324-.45a65.373,65.373,0,0,1-7.48-13.728c-.062-.149-.12-.3-.173-.45q-.887-2.318-1.618-4.712c-.2-.666-.39-1.35-.559-2.016-.058-.2-.111-.4-.16-.6-2.447-9.78-2.727-19.948-2.727-30.057v-3.533c.071-16.352.319-32.982,2.7-49.109a2.079,2.079,0,0,1,.049-.333,155.421,155.421,0,0,1,3.241-16.122H115.1V314.559h9.027V295.93h19.429v18.629Z" transform="translate(-63.83 -189.71)" fill="#16e584" opacity="0.1"/>
    <path id="Caminho_137" data-name="Caminho 137" d="M720.1,452.153c-11.776,24.669-35.7,41.165-60.485,52.043a220.535,220.535,0,0,1-62.272,16.869q-6.163.743-12.366,1.152a236.267,236.267,0,0,1-31.732-.036q-9.533-.644-19-2.057a236.925,236.925,0,0,1-63.523-18.777q-8.752-4-17.15-8.736a219.1,219.1,0,0,1-26.807-17.8q-2.82-2.187-5.569-4.469l-.754-.626c-1.441-1.206-2.869-2.439-4.319-3.637a62.8,62.8,0,0,0-7.653-5.572c-.182-.108-.364-.216-.55-.32-.5-.293-1-.567-1.516-.828a34.473,34.473,0,0,0-3.254-1.458V388.092h82.286v15.541h36.113V289.951h42.507V335.41h21.025V308.495h17.371V279.743h7.981V263c.692.257,1.383.522,2.071.788v15.956h7.768v28.769H637.63v26.915h25.6V437.971h40.684V363.4h13.111C728.935,391.6,733.227,424.662,720.1,452.153Z" transform="translate(-252.698 -171.601)" fill="#16e584" opacity="0.1"/>
    <rect id="Retângulo_73" data-name="Retângulo 73" width="18.999" height="19.286" transform="translate(281.555 135.458)" fill="#16e584" opacity="0.1"/>
    <rect id="Retângulo_74" data-name="Retângulo 74" width="18.999" height="19.286" transform="translate(281.555 175.434)" fill="#16e584" opacity="0.1"/>
    <rect id="Retângulo_75" data-name="Retângulo 75" width="18.999" height="19.286" transform="translate(281.555 215.415)" fill="#16e584" opacity="0.1"/>
    <rect id="Retângulo_76" data-name="Retângulo 76" width="18.999" height="19.286" transform="translate(281.555 255.396)" fill="#16e584" opacity="0.1"/>
    <rect id="Retângulo_77" data-name="Retângulo 77" width="18.999" height="19.286" transform="translate(281.555 295.373)" fill="#16e584" opacity="0.1"/>
    <path id="Caminho_138" data-name="Caminho 138" d="M717.839,805v15.231q-9.533-.644-19-2.057V805Z" transform="translate(-417.285 -469.655)" fill="#16e584" opacity="0.1"/>
    <rect id="Retângulo_78" data-name="Retângulo 78" width="66.502" height="8.736" transform="translate(156.717 241.417)" fill="#16e584" opacity="0.1"/>
    <rect id="Retângulo_79" data-name="Retângulo 79" width="66.502" height="8.736" transform="translate(156.717 267.949)" fill="#16e584" opacity="0.1"/>
    <path id="Caminho_139" data-name="Caminho 139" d="M492.215,714.21v8.732H443.071q-2.82-2.187-5.569-4.469l-.754-.626c-1.441-1.206-2.869-2.439-4.318-3.637Z" transform="translate(-268.996 -419.728)" fill="#16e584" opacity="0.1"/>
    <path id="Caminho_140" data-name="Caminho 140" d="M539.227,773.15v8.736H534.04q-8.752-4-17.15-8.736Z" transform="translate(-316.008 -452.14)" fill="#16e584" opacity="0.1"/>
    <rect id="Retângulo_80" data-name="Retângulo 80" width="12.366" height="12.553" transform="translate(332.286 187.681)" fill="#16e584" opacity="0.1"/>
    <rect id="Retângulo_81" data-name="Retângulo 81" width="12.366" height="12.553" transform="translate(64.486 129.179)" fill="#16e584" opacity="0.1"/>
    <rect id="Retângulo_82" data-name="Retângulo 82" width="12.366" height="12.553" transform="translate(64.486 158.344)" fill="#16e584" opacity="0.1"/>
    <rect id="Retângulo_83" data-name="Retângulo 83" width="12.366" height="12.553" transform="translate(64.486 187.505)" fill="#16e584" opacity="0.1"/>
    <rect id="Retângulo_84" data-name="Retângulo 84" width="12.366" height="12.553" transform="translate(64.486 216.671)" fill="#16e584" opacity="0.1"/>
    <rect id="Retângulo_85" data-name="Retângulo 85" width="12.366" height="12.553" transform="translate(64.486 245.837)" fill="#16e584" opacity="0.1"/>
    <rect id="Retângulo_86" data-name="Retângulo 86" width="12.366" height="12.553" transform="translate(64.486 274.998)" fill="#16e584" opacity="0.1"/>
    <rect id="Retângulo_87" data-name="Retângulo 87" width="12.366" height="12.553" transform="translate(379.501 187.681)" fill="#16e584" opacity="0.1"/>
    <rect id="Retângulo_88" data-name="Retângulo 88" width="12.366" height="12.553" transform="translate(332.286 218.647)" fill="#16e584" opacity="0.1"/>
    <rect id="Retângulo_89" data-name="Retângulo 89" width="12.366" height="12.553" transform="translate(379.501 218.647)" fill="#16e584" opacity="0.1"/>
    <rect id="Retângulo_90" data-name="Retângulo 90" width="12.366" height="12.553" transform="translate(332.286 249.617)" fill="#16e584" opacity="0.1"/>
    <rect id="Retângulo_91" data-name="Retângulo 91" width="12.366" height="12.553" transform="translate(379.501 249.617)" fill="#16e584" opacity="0.1"/>
    <rect id="Retângulo_92" data-name="Retângulo 92" width="12.366" height="12.553" transform="translate(332.286 280.588)" fill="#16e584" opacity="0.1"/>
    <rect id="Retângulo_93" data-name="Retângulo 93" width="12.366" height="12.553" transform="translate(379.501 280.588)" fill="#16e584" opacity="0.1"/>
    <rect id="Retângulo_94" data-name="Retângulo 94" width="12.366" height="12.553" transform="translate(332.286 311.553)" fill="#16e584" opacity="0.1"/>
    <rect id="Retângulo_95" data-name="Retângulo 95" width="12.366" height="12.553" transform="translate(379.501 311.553)" fill="#16e584" opacity="0.1"/>
    <path id="Caminho_141" data-name="Caminho 141" d="M749.43,769.107v-8.1H761.8v6.945Z" transform="translate(-417.144 -418.491)" fill="#16e584" opacity="0.1"/>
    <path id="Caminho_142" data-name="Caminho 142" d="M69.93,424.68v7.2h47.3v-7.2Zm4.212,6.751H70.67v-6.3h3.472Zm4.212,0H74.883v-6.3h3.472Zm4.212,0H79.095v-6.3h3.472Zm4.212,0H83.307v-6.3h3.472Zm4.212,0H87.519v-6.3H90.99Zm4.212,0H91.731v-6.3H95.2Zm4.212,0H95.943v-6.3h3.472Zm4.212,0h-3.472v-6.3h3.472Zm4.212,0h-3.472v-6.3h3.472Zm4.212,0h-3.472v-6.3h3.472Zm4.434,0h-3.693v-6.3h3.693Z" transform="translate(-67.22 -260.511)" fill="#16e584" opacity="0.1"/>
    <path id="Caminho_143" data-name="Caminho 143" d="M69.93,471.14v7.179h47.3V471.14Zm4.212,6.729H70.67V471.59h3.472Zm4.212,0H74.883V471.59h3.472Zm4.212,0H79.095V471.59h3.472Zm4.212,0H83.307V471.59h3.472Zm4.212,0H87.519V471.59H90.99Zm4.212,0H91.731V471.59H95.2Zm4.212,0H95.943V471.59h3.472Zm4.212,0h-3.472V471.59h3.472Zm4.212,0h-3.472V471.59h3.472Zm4.212,0h-3.472V471.59h3.472Zm4.434,0h-3.693V471.59h3.693Z" transform="translate(-67.22 -286.061)" fill="#16e584" opacity="0.1"/>
    <path id="Caminho_144" data-name="Caminho 144" d="M69.93,517.59v7.179h47.3V517.59Zm4.212,6.729H70.67V518.04h3.472Zm4.212,0H74.883V518.04h3.472Zm4.212,0H79.095V518.04h3.472Zm4.212,0H83.307V518.04h3.472Zm4.212,0H87.519V518.04H90.99Zm4.212,0H91.731V518.04H95.2Zm4.212,0H95.943V518.04h3.472Zm4.212,0h-3.472V518.04h3.472Zm4.212,0h-3.472V518.04h3.472Zm4.212,0h-3.472V518.04h3.472Zm4.434,0h-3.693V518.04h3.693Z" transform="translate(-67.22 -311.604)" fill="#16e584" opacity="0.1"/>
    <path id="Caminho_145" data-name="Caminho 145" d="M69.93,564v7.2h47.3V564Zm4.212,6.751H70.67v-6.3h3.472Zm4.212,0H74.883v-6.3h3.472Zm4.212,0H79.095v-6.3h3.472Zm4.212,0H83.307v-6.3h3.472Zm4.212,0H87.519v-6.3H90.99Zm4.212,0H91.731v-6.3H95.2Zm4.212,0H95.943v-6.3h3.472Zm4.212,0h-3.472v-6.3h3.472Zm4.212,0h-3.472v-6.3h3.472Zm4.212,0h-3.472v-6.3h3.472Zm4.434,0h-3.693v-6.3h3.693Z" transform="translate(-67.22 -337.126)" fill="#16e584" opacity="0.1"/>
    <path id="Caminho_146" data-name="Caminho 146" d="M70.34,610.49c.168.675.359,1.35.559,2.016V610.94H74.37v6.3H72.517c.053.149.111.3.173.45h44.781v-7.2Zm8.242,6.751H75.111v-6.3h3.472Zm4.212,0H79.323v-6.3h3.472Zm4.212,0H83.535v-6.3h3.472Zm4.212,0H87.747v-6.3h3.472Zm4.212,0H91.959v-6.3h3.472Zm4.212,0H96.171v-6.3h3.472Zm4.212,0h-3.472v-6.3h3.472Zm4.212,0H104.6v-6.3h3.472Zm4.212,0h-3.472v-6.3h3.472Zm4.434,0h-3.693v-6.3h3.693Z" transform="translate(-67.448 -362.691)" fill="#16e584" opacity="0.1"/>
    <path id="Caminho_147" data-name="Caminho 147" d="M92.51,656.94c.106.149.213.3.324.45h2.3v3.02c.244.3.492.6.74.9v-3.916h3.472v6.3H97.941c.137.149.275.3.421.45h31.431v-7.2Zm11.049,6.751h-3.472v-6.3h3.472Zm4.212,0H104.3v-6.3h3.472Zm4.212,0h-3.472v-6.3h3.472Zm4.212,0h-3.472v-6.3H116.2Zm4.212,0h-3.472v-6.3h3.472Zm4.212,0h-3.472v-6.3h3.472Zm4.434,0H125.36v-6.3h3.693Z" transform="translate(-79.788 -388.235)" fill="#16e584" opacity="0.1"/>
    <path id="Caminho_148" data-name="Caminho 148" d="M144.87,703.39c.4.23.8.45,1.21.671v-.221h3.472v1.989l.74.342V703.84h3.472v3.821l.74.288V703.84H158.2v5.4l.74.234V703.39Z" transform="translate(-108.933 -413.778)" fill="#16e584" opacity="0.1"/>
    <path id="Caminho_149" data-name="Caminho 149" d="M461.97,286.153s-10.57-.648-9.311,6.868a1.845,1.845,0,0,0,.94,1.935s0-.558,1.082-.369a4.869,4.869,0,0,0,1.148.054,2.371,2.371,0,0,0,1.406-.585h0s2.971-1.247,4.128-6.175c0,0,.851-1.076.82-1.35l-1.774.774a3.283,3.283,0,0,1,.133,2.39s-.058-2.34-.4-2.286c-.066,0-.927.45-.927.45s1.051,2.277.257,3.929c0,0,.3-2.8-.581-3.763l-1.286.752s1.228,2.349.395,4.267c0,0,.217-2.939-.656-4.082l-1.139.9s1.153,2.313.443,3.907c0,0-.093-3.425-.7-3.686a6.9,6.9,0,0,0-1.148,1.26s.789,1.679.3,2.565c0,0-.3-2.277-.55-2.291a7.638,7.638,0,0,0-1.091,2.547,5.539,5.539,0,0,1,.851-2.7,2.965,2.965,0,0,0-1.516.8s.155-1.067,1.774-1.161a7,7,0,0,1,1.042-1.215,6.44,6.44,0,0,0-2.572.3,2.859,2.859,0,0,1,2.864-.549l1.122-.932a9.106,9.106,0,0,0-3,.031s1.024-.9,3.3-.243l1.224-.743a11,11,0,0,0-2.864-.252,4.333,4.333,0,0,1,3.223.054l.887-.4s-1.33-.261-1.7-.3-.408-.148-.408-.148a4.5,4.5,0,0,1,2.47.279A11.076,11.076,0,0,0,461.97,286.153Z" transform="translate(-280.198 -184.326)" fill="#16e584" opacity="0.1"/>
    <path id="Caminho_150" data-name="Caminho 150" d="M410.111,367.33s-3.614,10.1,3.844,11.023a1.785,1.785,0,0,0,2.088-.365s-.519-.176-.04-1.161a5.178,5.178,0,0,0,.381-1.1,2.468,2.468,0,0,0-.16-1.535h0s-.332-3.245-4.66-5.77c0,0-.771-1.139-1.042-1.184l.222,1.958a3.157,3.157,0,0,1,2.3.549s-2.217-.608-2.275-.257c0,.068.164,1.031.164,1.031s2.447-.378,3.782.864c0,0-2.563-1.089-3.72-.5l.346,1.431s2.567-.522,4.141.828c0,0-2.714-1.04-4.044-.518l.528,1.35s2.514-.45,3.817.671c0,0-3.263-.9-3.676-.369a7.109,7.109,0,0,0,.86,1.472s1.813-.288,2.51.45c0,0-2.239-.355-2.319-.122a7.677,7.677,0,0,0,2.1,1.8,5.424,5.424,0,0,1-2.3-1.6,3.064,3.064,0,0,0,.324,1.706s-.967-.45-.6-2.048a6.9,6.9,0,0,1-.851-1.35,6.614,6.614,0,0,0-.443,2.588,2.972,2.972,0,0,1,.293-2.944l-.559-1.35a9.213,9.213,0,0,0-.825,2.93s-.55-1.256.709-3.286l-.35-1.4a11.324,11.324,0,0,0-1.051,2.7,4.5,4.5,0,0,1,.962-3.124l-.129-.963s-.621,1.206-.767,1.571-.257.351-.257.351a4.663,4.663,0,0,1,.962-2.327A11.525,11.525,0,0,0,410.111,367.33Z" transform="translate(-256.085 -228.924)" fill="#16e584" opacity="0.1"/>
    <path id="Caminho_151" data-name="Caminho 151" d="M568.143,348.4s-3.609,10.118,3.844,11.018a1.789,1.789,0,0,0,2.093-.369s-.523-.175-.04-1.157a4.856,4.856,0,0,0,.377-1.1,2.469,2.469,0,0,0-.155-1.535h0s-.333-3.245-4.66-5.77c0,0-.776-1.134-1.046-1.179l.226,1.953a3.17,3.17,0,0,1,2.3.554s-2.217-.608-2.279-.261c0,.072.164,1.031.164,1.031s2.448-.374,3.786.864c0,0-2.563-1.085-3.724-.5l.35,1.436s2.567-.527,4.141.828c0,0-2.718-1.044-4.048-.522l.528,1.35s2.514-.45,3.818.671c0,0-3.259-.9-3.676-.365a6.966,6.966,0,0,0,.887,1.472s1.809-.293,2.51.45c0,0-2.239-.356-2.319-.117a7.715,7.715,0,0,0,2.093,1.8,5.376,5.376,0,0,1-2.3-1.6,3.086,3.086,0,0,0,.319,1.706s-.962-.45-.594-2.043a7.262,7.262,0,0,1-.856-1.35,6.724,6.724,0,0,0-.443,2.588,2.97,2.97,0,0,1,.293-2.944l-.559-1.35a9.216,9.216,0,0,0-.825,2.926s-.55-1.251.709-3.281l-.355-1.4a11.321,11.321,0,0,0-1.051,2.7,4.519,4.519,0,0,1,.966-3.124l-.128-.963s-.621,1.206-.771,1.571-.257.351-.257.351a4.694,4.694,0,0,1,.967-2.327A11.231,11.231,0,0,0,568.143,348.4Z" transform="translate(-344.05 -218.514)" fill="#16e584" opacity="0.1"/>
    <path id="Caminho_152" data-name="Caminho 152" d="M342.241,531.9s-3.614,10.1,3.844,11.027a1.78,1.78,0,0,0,2.088-.369s-.519-.176-.04-1.157a4.9,4.9,0,0,0,.381-1.1,2.437,2.437,0,0,0-.16-1.535h0s-.333-3.245-4.66-5.766c0,0-.771-1.139-1.042-1.184l.222,1.953a3.167,3.167,0,0,1,2.3.554s-2.217-.608-2.275-.261c0,.072.164,1.031.164,1.031s2.447-.374,3.782.864c0,0-2.563-1.085-3.72-.5l.346,1.436s2.567-.526,4.141.828c0,0-2.713-1.044-4.044-.522l.528,1.35s2.514-.45,3.818.671c0,0-3.259-.9-3.676-.365a7.11,7.11,0,0,0,.86,1.472s1.813-.292,2.514.45c0,0-2.243-.355-2.323-.117a7.76,7.76,0,0,0,2.1,1.8,5.393,5.393,0,0,1-2.3-1.593,3.051,3.051,0,0,0,.324,1.7s-.967-.45-.6-2.043a7.267,7.267,0,0,1-.851-1.35,6.635,6.635,0,0,0-.443,2.588,2.97,2.97,0,0,1,.293-2.944l-.559-1.35a9.123,9.123,0,0,0-.82,2.926s-.55-1.251.709-3.281l-.355-1.4a11.234,11.234,0,0,0-1.051,2.7,4.494,4.494,0,0,1,.962-3.124l-.129-.968s-.621,1.206-.767,1.571-.257.351-.257.351a4.645,4.645,0,0,1,.967-2.327A11.647,11.647,0,0,0,342.241,531.9Z" transform="translate(-218.307 -319.424)" fill="#16e584" opacity="0.1"/>
    <path id="Caminho_153" data-name="Caminho 153" d="M309.9,320.3s-3.609,10.1,3.844,11.023a1.794,1.794,0,0,0,2.093-.365s-.523-.176-.04-1.161a5.1,5.1,0,0,0,.377-1.1,2.455,2.455,0,0,0-.155-1.53h0s-.333-3.245-4.664-5.77c0,0-.771-1.139-1.042-1.184l.226,1.958a3.144,3.144,0,0,1,2.292.549s-2.217-.608-2.275-.257c0,.068.164,1.031.164,1.031s2.447-.378,3.786.864c0,0-2.563-1.089-3.724-.5l.346,1.431s2.567-.527,4.146.828c0,0-2.718-1.044-4.048-.518l.528,1.35s2.514-.45,3.817.675c0,0-3.259-.9-3.676-.369a7.107,7.107,0,0,0,.86,1.472s1.813-.288,2.514.45c0,0-2.239-.356-2.319-.122a7.635,7.635,0,0,0,2.093,1.8,5.451,5.451,0,0,1-2.3-1.6,3.064,3.064,0,0,0,.324,1.706s-.967-.45-.594-2.048a7.113,7.113,0,0,1-.856-1.35,6.7,6.7,0,0,0-.443,2.588,2.958,2.958,0,0,1,.293-2.944l-.563-1.35a9.122,9.122,0,0,0-.82,2.93s-.55-1.256.709-3.286l-.355-1.4a11.32,11.32,0,0,0-1.051,2.7,4.527,4.527,0,0,1,.962-3.124l-.124-.963s-.625,1.206-.771,1.566-.257.356-.257.356a4.645,4.645,0,0,1,.967-2.327A11.169,11.169,0,0,0,309.9,320.3Z" transform="translate(-200.308 -203.062)" fill="#16e584" opacity="0.1"/>
    <path id="Caminho_154" data-name="Caminho 154" d="M371.44,442.2s2.789,10.352,9.4,6.751a1.819,1.819,0,0,0,1.5-1.521s-.523.162-.687-.923a5.006,5.006,0,0,0-.319-1.121,2.371,2.371,0,0,0-1-1.161h0s-2.115-2.457-7.094-1.989c0,0-1.277-.473-1.525-.351l1.295,1.463a3.217,3.217,0,0,1,2.19-.9s-2.168.81-2.008,1.121c.035.063.718.747.718.747s1.773-1.742,3.582-1.512c0,0-2.709.612-3.321,1.773l1.1.968s1.8-1.931,3.857-1.751c0,0-2.815.738-3.6,1.944l1.206.806s1.773-1.85,3.5-1.683c0,0-3.166,1.184-3.215,1.85a6.863,6.863,0,0,0,1.543.7s1.33-1.3,2.3-1.112c0,0-2.035,1.022-1.964,1.26a7.777,7.777,0,0,0,2.727.234,5.331,5.331,0,0,1-2.784.045,2.972,2.972,0,0,0,1.233,1.2s-1.046.194-1.649-1.323a6.967,6.967,0,0,1-1.472-.608,6.7,6.7,0,0,0,1.108,2.376s-1.215-.5-1.432-2.579l-1.228-.779a9.532,9.532,0,0,0,.989,2.872s-1.162-.7-1.286-3.1l-1.082-.936a11.391,11.391,0,0,0,.683,2.836,4.55,4.55,0,0,1-.984-3.115l-.652-.716s.177,1.35.262,1.733,0,.45,0,.45a4.68,4.68,0,0,1-.532-2.466A11.186,11.186,0,0,0,371.44,442.2Z" transform="translate(-235.047 -269.962)" fill="#16e584" opacity="0.1"/>
    <path id="Caminho_155" data-name="Caminho 155" d="M542.08,462.768s2.789,10.352,9.4,6.751a1.814,1.814,0,0,0,1.5-1.521s-.528.162-.692-.9a4.785,4.785,0,0,0-.315-1.121,2.4,2.4,0,0,0-1-1.161h0s-2.115-2.457-7.094-1.985c0,0-1.277-.477-1.521-.356l1.29,1.463a3.217,3.217,0,0,1,2.19-.9s-2.168.81-2,1.121c.031.063.718.747.718.747s1.773-1.742,3.583-1.512c0,0-2.714.612-3.325,1.773l1.1.968s1.774-1.931,3.853-1.751c0,0-2.811.738-3.6,1.944l1.206.806s1.773-1.85,3.5-1.683c0,0-3.166,1.184-3.21,1.85a6.807,6.807,0,0,0,1.539.7s1.33-1.3,2.3-1.112c0,0-2.031,1.022-1.964,1.26a7.793,7.793,0,0,0,2.731.234,5.354,5.354,0,0,1-2.789.045,3,3,0,0,0,1.233,1.2s-1.046.194-1.649-1.323a6.85,6.85,0,0,1-1.468-.608,6.659,6.659,0,0,0,1.1,2.376s-1.215-.5-1.432-2.579l-1.228-.788a9.449,9.449,0,0,0,.993,2.872s-1.162-.7-1.286-3.1l-1.086-.936a11.251,11.251,0,0,0,.687,2.836,4.538,4.538,0,0,1-.989-3.115l-.652-.716s.177,1.35.262,1.733,0,.45,0,.45a4.68,4.68,0,0,1-.532-2.466A11.254,11.254,0,0,0,542.08,462.768Z" transform="translate(-330.029 -281.285)" fill="#16e584" opacity="0.1"/>
    <path id="Caminho_156" data-name="Caminho 156" d="M455.762,641.074s23-7.863,18.241-35.723l-29.219-7.7L438,620.51Z" transform="translate(-272.096 -355.63)" fill="#ced7e7"/>
    <path id="Caminho_157" data-name="Caminho 157" d="M438,629.919l17.757,20.564s23-7.863,18.241-35.723Z" transform="translate(-272.096 -365.039)" opacity="0.1"/>
    <path id="Caminho_158" data-name="Caminho 158" d="M219.959,182.436s3.1,5.126,7.347,2.566.173-9.636.173-9.636S219.352,174.236,219.959,182.436Z" transform="translate(-150.712 -123.381)" fill="#fed253"/>
    <path id="Caminho_159" data-name="Caminho 159" d="M227.306,185.005a4.322,4.322,0,0,1-3.418.585,6.9,6.9,0,0,1-3.4-2.412,7.511,7.511,0,0,1-.532-.734c-.217-2.926.678-4.667,1.92-5.694h0a7.728,7.728,0,0,1,5.09-1.422,2.277,2.277,0,0,1,.5.045l.084.144c.12.23.381.738.661,1.418C229.159,179.163,230.29,183.2,227.306,185.005Z" transform="translate(-150.711 -123.384)" opacity="0.1"/>
    <path id="Caminho_160" data-name="Caminho 160" d="M466.628,611.85l15.962,1.31,29.706.247L488.89,642.663s-7.427.41-8.956,1.472-23.007.495-23.007.495l-3.467-15Z" transform="translate(-280.701 -363.439)" fill="#ffa2a2"/>
    <path id="Caminho_161" data-name="Caminho 161" d="M466.628,611.85l15.962,1.31,29.706.247L488.89,642.663s-7.427.41-8.956,1.472-23.007.495-23.007.495l-3.467-15Z" transform="translate(-280.701 -363.439)" opacity="0.05"/>
    <path id="Caminho_162" data-name="Caminho 162" d="M426.483,436.315l3.711,6.391L431,453.85s2.585,9.5,4.522,12.287,2.745,10.163,2.745,10.163.807,6.882,1.773,8.354,2.261,12.152,2.261,12.152,8.557,17.369,16.3,19.5c0,0-38.419,12.782-18.241,35.723,0,0-14.365,3.6-17.757-.491S410.34,486.81,410.34,486.81l2.745-51.13Z" transform="translate(-256.7 -266.56)" fill="#ced7e7"/>
    <path id="Caminho_163" data-name="Caminho 163" d="M426.483,436.315l3.711,6.391L431,453.85s2.585,9.5,4.522,12.287,2.745,10.163,2.745,10.163.807,6.882,1.773,8.354,2.261,12.152,2.261,12.152,8.557,17.369,16.3,19.5c0,0-38.419,12.782-18.241,35.723,0,0-14.365,3.6-17.757-.491S410.34,486.81,410.34,486.81l2.745-51.13Z" transform="translate(-256.7 -266.56)" opacity="0.05"/>
    <path id="Caminho_164" data-name="Caminho 164" d="M282.708,264.479a35.617,35.617,0,0,0,.931,17.058l-5.977,17.369s-45.522-25.727-41.646-31.956c2.195-3.533,2.474-12.881,2.3-20.308-.129-5.644-.523-10.172-.523-10.172s55.866,5.577,48.43,18.521A30.843,30.843,0,0,0,282.708,264.479Z" transform="translate(-159.537 -157.012)" fill="#ffa2a2"/>
    <path id="Caminho_165" data-name="Caminho 165" d="M288.74,254.991a30.846,30.846,0,0,0-3.512,9.488,37.426,37.426,0,0,1-44.4-17.837c-.129-5.644-.523-10.172-.523-10.172S296.162,242.047,288.74,254.991Z" transform="translate(-162.057 -157.012)" opacity="0.1"/>
    <path id="Caminho_166" data-name="Caminho 166" d="M306.062,169.082a38.139,38.139,0,0,1-25.836,36.289A37.3,37.3,0,0,1,238.194,191.8a38.654,38.654,0,0,1-.438-44.772q.8-1.139,1.68-2.223a37.727,37.727,0,0,1,12.242-9.9h0a36.6,36.6,0,0,1,8.047-2.962,37.222,37.222,0,0,1,29.582,5.388A38.311,38.311,0,0,1,305.6,162.965a39.206,39.206,0,0,1,.461,6.117Z" transform="translate(-156.78 -98.963)" fill="#ffa2a2"/>
    <path id="Caminho_167" data-name="Caminho 167" d="M232.319,407.33c-.563,3.052.142,8.628,1.21,14.3.044.247.093.5.142.743s.12.63.182.941c.492,2.439,1.029,4.856,1.552,7.053s.993,4.078,1.392,5.626c.6,2.318,1.015,3.776,1.015,3.776s.053,1.431.124,3.709c.04,1.314.084,2.917.129,4.685,0,.513.031,1.035.044,1.575.022.941.044,1.917.066,2.917,0,.324,0,.648.022.977,0,1.076.04,2.174.058,3.268.022,1.5.04,3.007.049,4.465v5.608a33.6,33.6,0,0,1-.479,6.882c-.1.261-.2.545-.284.842a28.844,28.844,0,0,0-.834,4.262l-.754-.625c-1.441-1.206-2.869-2.44-4.318-3.637a62.814,62.814,0,0,0-7.653-5.572c-.182-.108-.364-.216-.55-.32-.5-.293-1-.567-1.516-.828a34.471,34.471,0,0,0-3.254-1.458,42.047,42.047,0,0,0-16.166-2.579c-2.217.86-3.658,1.476-3.658,1.476l-2.82.864-.47.144c-3.055.945-7.351,2.286-8.9,2.845-2.5.9-24.213,5.487-24.213,5.487a35.578,35.578,0,0,1-6.057,1.125,84.4,84.4,0,0,1-11.355,2.412,62.364,62.364,0,0,1-25.986-2.124,4.187,4.187,0,0,1-.754-.023,2.294,2.294,0,0,0,.443-.063l-.541-.162-.74-.234q-1.862-.594-3.693-1.3l-.74-.288q-1.774-.693-3.472-1.49l-.74-.342q-1.774-.837-3.472-1.769c-.408-.216-.811-.45-1.21-.671q-1.809-1.026-3.547-2.151c-.2-1.7-.3-2.831-.3-2.831l-1.729-8.741-.089-.45-1.241-6.3-.089-.45-2.7-13.71-.089-.45-1.241-6.3-.089-.45-2.736-13.7-.089-.45-1.241-6.3-.089-.45-2.713-13.728-.089-.45-1.241-6.279-.089-.45-.492-2.475-.74-3.749s-2.363-3.43-5.023-7.485l-.3-.45c-.758-1.139-1.539-2.323-2.3-3.484-.253-.383-.5-.761-.74-1.134q-.554-.851-1.073-1.661l-.239-.374-.049-.077c-3.822-6-1.264-8.615-1.264-8.615s1.605-2.205,3.676-5.122c.1-.149.208-.3.319-.45.887-1.26,1.862-2.638,2.82-4.015l.74-1.071c.279-.4.554-.8.82-1.2.106-.148.208-.3.306-.45a53.385,53.385,0,0,0,4.075-6.54c.541-1.463,3.99-5.788,7.427-9.582,2.709-3,5.4-5.662,6.615-6.3,2.745-1.472,3.875-6.229,3.875-6.229s5.972-2.124,6.779-3.763,12.109-9,12.109-9a59.763,59.763,0,0,0,6.42-4.789,3.823,3.823,0,0,0,.678-.806c.643-1.17,4.842-2.133,6.549-2.48.443-.09.718-.139.718-.139a14.646,14.646,0,0,1,2.585-3.443c.7-.626,1.565-2.782,2.3-4.87.794-2.277,1.41-4.469,1.41-4.469,1.295-4.424,3.875-3.115,3.875-3.115a9.132,9.132,0,0,0,.168,1.8h0c1.077,5.4,6.93,7.651,10,10.176,3.392,2.782,8.717,10,12.916,11.468,3.476,1.22,7.506,5.82,8.783,7.354l.1.117c.213.252.319.4.319.4s2.381-.126,3.831-.153h.528a1.53,1.53,0,0,0,.807-.333c1.441-.995,3.587-3.911,4.522-4.582,1.126-.824,2.261-14.1,2.261-14.1l.058-.027c4.021-1.913,8.335,17.234,8.335,17.234s7.586,2.3,8.233,3.934a5.848,5.848,0,0,0,1.556,1.6,85.139,85.139,0,0,0,12.459,8.034c.1.049.191.1.288.14a2.916,2.916,0,0,0,.27.131c.164.081.324.153.474.221q.359.162.665.27l.266.095a6.377,6.377,0,0,1,1.774.932c.16.117.319.238.474.369a12.628,12.628,0,0,1,1.658,1.692c.075.09.146.185.217.275h0a15.126,15.126,0,0,1,.887,1.242,18.471,18.471,0,0,1,1.113,1.881s6.615,11.473,8.717,12.778,3.392,14.587,3.392,14.587h0l-7.094,26.695s-.333,6.751-.953,13.638C233.281,400.574,232.842,404.5,232.319,407.33Z" transform="translate(-68.188 -180.217)" fill="#ced7e7"/>
    <path id="Caminho_168" data-name="Caminho 168" d="M288.971,340.025s-4.757,2.62-8.473,2.867a6.883,6.883,0,0,1-1.454-.086c-3.893-.6-9.6-3.848-9.6-3.848l6.7-7.458,8.149,4.1,3,2.831Z" transform="translate(-178.272 -209.27)" fill="#63667e"/>
    <path id="Caminho_169" data-name="Caminho 169" d="M305.589,162.976a4.511,4.511,0,0,1-.572.671c-2.332,2.25-6.473,1.319-9.652.8a34.753,34.753,0,0,1-8.038-2.358c-2.243-.972-4.935-2.16-6.952-.765-.776.531-1.308,1.382-2.115,1.85a5.747,5.747,0,0,1-2.789.513,40.127,40.127,0,0,1-9.236-.675c-4.518-1.071-9.191-3.767-13.488-1.989-3.361,1.386-5.183,5.1-6.092,8.669a15.84,15.84,0,0,1-1.773,5.086c-1,1.485-2.94,2.539-4.589,1.841-2.434-1.031-2.793-5.225-5.728-5.437-3.223-.23-3.183,3.151-2.243,5.595,1.392,3.6,3.214,7.2,3.294,10.955a38.693,38.693,0,0,1,2.146-40.706,4.1,4.1,0,0,0,1.6-1.9,2.874,2.874,0,0,0,.08-.324c.244-1.256-.443-2.575-.483-3.889-.155-3.209,3.268-5.446,6.407-5.851,2.088-.27,4.225-.063,6.318-.131h0a14.1,14.1,0,0,0,3.126-.423,14.955,14.955,0,0,0,4.877-2.543,37.222,37.222,0,0,1,29.582,5.388,38.311,38.311,0,0,1,16.294,25.637Z" transform="translate(-156.786 -98.974)" opacity="0.1"/>
    <path id="Caminho_170" data-name="Caminho 170" d="M302.011,152.315a4.969,4.969,0,0,1-1.33,2.34c-2.332,2.25-6.473,1.314-9.652.792a34.319,34.319,0,0,1-8.038-2.34c-2.243-.968-4.935-2.156-6.952-.761-.776.531-1.308,1.382-2.115,1.85a5.694,5.694,0,0,1-2.789.509,38.91,38.91,0,0,1-9.236-.671c-4.518-1.076-9.191-3.767-13.488-1.994-3.361,1.386-5.183,5.1-6.092,8.673a15.778,15.778,0,0,1-1.773,5.081c-1,1.481-2.94,2.543-4.589,1.845-2.434-1.031-2.793-5.225-5.728-5.437-3.223-.23-3.183,3.151-2.243,5.595,1.649,4.262,3.893,8.5,3.157,13.021-.732,0-1.942-.027-2.66-.045.559-.968-.505-2.12-1.565-2.448s-2.3-.324-3.1-1.107a3.735,3.735,0,0,1-.727-3.079,21.446,21.446,0,0,1,1.654-6.724c.581-1.35,1.33-2.813.887-4.226a12.073,12.073,0,0,0-.958-1.841,7.128,7.128,0,0,1,.084-5.91c.337-.792.581-1.539.86-2.25a10.056,10.056,0,0,1,1.512-2.8c1.015-1.283,2.009-3.214.887-4.406-.284-.3.284-.509.1-.9a.778.778,0,0,1-.067-.212,2.068,2.068,0,0,1,.319-1.35,3.313,3.313,0,0,1,.173-.3,2.573,2.573,0,0,1,.173-.3,14.231,14.231,0,0,1,3.835-4.244c.962-.707,2.088-1.386,2.47-2.529.443-1.35-.337-2.786-.4-4.213-.155-3.209,3.268-5.446,6.407-5.851s6.394.266,9.453-.558c4.341-1.161,7.391-5.05,11.333-7.233a15.832,15.832,0,0,1,14.1-.513c4.6,2.133,8.074,6.445,12.88,8.066,1.7.576,3.547.806,5.081,1.76,1.773,1.107,2.851,3.043,3.773,4.951,1.405,2.894,1.689,5.8,2.66,8.867a33.286,33.286,0,0,1,1.929,8.408,8.549,8.549,0,0,1-.217,2.489Z" transform="translate(-152.45 -90.964)" fill="#896363"/>
    <g id="Grupo_83" data-name="Grupo 83" transform="translate(70.731 40.152)" opacity="0.1">
      <path id="Caminho_171" data-name="Caminho 171" d="M234.878,181.653a2.027,2.027,0,0,0-.333-1.683c.115.351-.386.554-.111.846A1.808,1.808,0,0,1,234.878,181.653Z" transform="translate(-229.472 -166.094)"/>
      <path id="Caminho_172" data-name="Caminho 172" d="M234.643,177.68h0a1.884,1.884,0,0,0-.093.486C234.634,178.022,234.75,177.874,234.643,177.68Z" transform="translate(-229.582 -164.835)"/>
      <path id="Caminho_173" data-name="Caminho 173" d="M306.455,194.15c-2.337,2.25-6.473,1.319-9.661.792a34.086,34.086,0,0,1-8.03-2.354c-2.248-.972-4.935-2.16-6.957-.765-.771.531-1.3,1.382-2.115,1.85a5.7,5.7,0,0,1-2.789.509,39.934,39.934,0,0,1-9.24-.675c-4.514-1.071-9.187-3.758-13.483-1.989-3.361,1.391-5.183,5.1-6.092,8.673a15.735,15.735,0,0,1-1.773,5.086c-1.006,1.485-2.944,2.538-4.589,1.845-2.434-1.035-2.793-5.225-5.728-5.437-2.292-.167-2.931,1.5-2.776,3.349A2.343,2.343,0,0,1,236,202.665c2.935.212,3.294,4.406,5.728,5.437,1.645.7,3.587-.351,4.589-1.845a15.929,15.929,0,0,0,1.773-5.081c.909-3.569,2.731-7.287,6.092-8.673,4.3-1.773,8.97.9,13.483,1.989a38.7,38.7,0,0,0,9.24.671,5.538,5.538,0,0,0,2.789-.5c.829-.477,1.33-1.319,2.115-1.854,2.022-1.391,4.709-.2,6.957.765a34.308,34.308,0,0,0,8.03,2.358c3.188.522,7.325,1.463,9.661-.8a6.244,6.244,0,0,0,1.565-4.951A5.715,5.715,0,0,1,306.455,194.15Z" transform="translate(-228.831 -171.708)"/>
      <path id="Caminho_174" data-name="Caminho 174" d="M249.444,149.14a4.852,4.852,0,0,0-.027.675c.044.936.395,1.872.505,2.786C250.087,151.48,249.577,150.31,249.444,149.14Z" transform="translate(-237.856 -149.14)"/>
      <path id="Caminho_175" data-name="Caminho 175" d="M227.2,214.024a3.349,3.349,0,0,1,.084.41,3.278,3.278,0,0,0-.084-1.391,11.735,11.735,0,0,0-.958-1.845,5.624,5.624,0,0,1-.581-2.138,6.005,6.005,0,0,0,.581,3.124A11.5,11.5,0,0,1,227.2,214.024Z" transform="translate(-224.624 -182.091)"/>
      <path id="Caminho_176" data-name="Caminho 176" d="M238.214,255.426l-2.594-.041a1.145,1.145,0,0,1-.08.981c.732,0,1.946.027,2.66.045a11.192,11.192,0,0,0,.129-2.331A10.714,10.714,0,0,1,238.214,255.426Z" transform="translate(-230.133 -206.848)"/>
      <path id="Caminho_177" data-name="Caminho 177" d="M227.183,247.872c-1.06-.324-2.292-.329-3.081-1.116a2.877,2.877,0,0,1-.736-1.886,3.582,3.582,0,0,0,.736,2.872c.789.788,2.022.792,3.081,1.116a2.643,2.643,0,0,1,1.609,1.35C229.24,249.276,228.211,248.183,227.183,247.872Z" transform="translate(-223.345 -201.783)"/>
    </g>
    <path id="Caminho_178" data-name="Caminho 178" d="M358.72,520.836c-.5-.293-1-.567-1.516-.828a34.48,34.48,0,0,0-3.254-1.458,42.051,42.051,0,0,0-16.166-2.579c-2.217.86-3.658,1.476-3.658,1.476l-2.82.864-.47.144c-.031-.315-.066-.63-.1-.95s-.066-.626-.1-.941c-.993-9.546-1.774-19.354-1.774-19.354v-9.456l-.053-24.957-.443-8.228-.208-3.641-.04-.693-.08-1.422-.044-.846a7.7,7.7,0,0,1-.248-.819h0c-.031-.113-.062-.239-.089-.369-.111-.45-.23-1.031-.355-1.661-.811-4.141-1.827-11.122-1.889-12.539-.08-1.89-1.694-13.2-1.694-13.2-.164-6.225-5.321-17.945-6.62-20.155s-2.749-15.487-2.261-16.2a21.027,21.027,0,0,0,.519-4.735c0-.239.022-.473.031-.7.067-1.634.1-3,.1-3l5.072-1.017,1.361-.27.106-.023.044.09c.146.275.6,1.152,1.139,2.3.062.122.12.252.182.383.027.063.058.126.089.189.993,2.205,2.141,5.108,2.093,6.778-.08,2.953,3.232,10.082,3.232,10.082.319,1.638,7.342,17.94,7.342,17.94s5.733,15.978,5.409,18.6,2.744,19.993,2.744,19.993l3.148,17.864A106.776,106.776,0,0,1,351,479.136l.767,4.6.146.878,2.044,12.274,1,6.013s.421,3.2,1.06,6.751c.053.319.115.643.177.968a50.144,50.144,0,0,0,1.671,6.909A26.177,26.177,0,0,1,358.72,520.836Z" transform="translate(-203.488 -232.246)" opacity="0.1"/>
    <path id="Caminho_179" data-name="Caminho 179" d="M359.883,521.145c-.182-.108-.364-.216-.55-.32-.5-.292-1-.567-1.516-.828a34.446,34.446,0,0,0-3.254-1.458A42.046,42.046,0,0,0,338.4,515.96c-2.217.86-3.658,1.476-3.658,1.476l-2.82.864c-.035-.315-.066-.63-.1-.95s-.062-.576-.089-.864c-.993-9.524-1.774-19.286-1.774-19.286v-9.537l-.053-24.894-.443-7.858-.089-1.629-.062-1.1-.08-1.458-.08-1.481-.058-1.067v-.234a.088.088,0,0,0-.031-.077c-.084-.243-.186-.612-.3-1.08l-.053-.225c-.022-.1-.049-.216-.071-.329-.834-3.839-2.057-12.116-2.124-13.669-.08-1.89-1.694-13.2-1.694-13.2-.164-6.225-5.321-17.945-6.62-20.155s-2.745-15.487-2.261-16.2c.279-.45.443-3.182.55-5.437v-.522c.058-1.391.08-2.475.08-2.475l4.718-.945,1.2-.239.186-.036.443-.09s.581,1.089,1.277,2.588l.089.189c1.015,2.223,2.217,5.248,2.181,6.967-.08,2.953,3.232,10.082,3.232,10.082.319,1.638,7.342,17.94,7.342,17.94s5.733,15.978,5.409,18.6,2.744,19.993,2.744,19.993l3.148,17.864a106.784,106.784,0,0,1,3.547,11.63l.714,4.285.146.869,1.61,9.686,1.485,8.925s.443,3.182,1.055,6.751c.058.324.115.648.177.977a50.417,50.417,0,0,0,1.672,6.94,27.778,27.778,0,0,1,.94,3.6Z" transform="translate(-204.102 -232.235)" fill="#63667e"/>
    <path id="Caminho_180" data-name="Caminho 180" d="M303.5,125.538s-1.694,2.214-3.223,2.214-7.484-.248-10.588-1.229-18.32-1.724-18.32-1.724-21.548.081-22.275-.657-13.4-4.672-14.689-4.424c-.27.054-.931.171-1.813.32l-1.011.167c-1.53.248-3.441.536-5.188.747a15.97,15.97,0,0,1-4.66.162v-1.886s2.5-3.691,2.66-4.748,2.261-16.392,7.75-21.879a21.773,21.773,0,0,1,10.411-9.9c7.427-3.281,14.853-6.063,14.853-6.063l1.3-.189,4.19-.63a3.176,3.176,0,0,1,.412-.351c1.162-.9,4.682-2.858,9.271,1.35l.811,1.314s14.122,3.358,20.657,15.073,6.863,23.188,7.347,28.432c0,0-.324,1.476.324,2.048a9.116,9.116,0,0,1,.669.666c.058.059.115.117.169.18.186.189.359.387.5.549a.209.209,0,0,1,.044.045,1.43,1.43,0,0,0,.111.122Z" transform="translate(-151.715 -67.788)" fill="#fed253"/>
    <path id="Caminho_181" data-name="Caminho 181" d="M316.768,175.241s-1.694,2.214-3.223,2.214-7.484-.248-10.588-1.229-18.32-1.724-18.32-1.724-21.548.081-22.275-.657-13.4-4.672-14.689-4.424c-.27.054-.931.171-1.813.32l-.231-1.44-.058-.356s24.457-5.324,40.76-2.534,28.332,5.9,28.332,5.9-.324,1.476.324,2.048a9.118,9.118,0,0,1,.67.666c.058.059.115.117.168.18.186.189.359.387.5.549a.209.209,0,0,1,.044.045,1.472,1.472,0,0,0,.111.121Z" transform="translate(-164.985 -117.491)" opacity="0.05"/>
    <path id="Caminho_182" data-name="Caminho 182" d="M300.295,184.54c-3.019.239-8.584-.509-11.018-.873-.692-.1-1.37-.23-2.053-.383-2.611-.576-10.641-2.192-15.518-1.445-5.893.9-22.519-.738-22.519-.738s-10.251-2.129-14.37-3.848a14.084,14.084,0,0,0-6.553-.518,18.012,18.012,0,0,0-1.907.347c-3.432.824-6.327,2.7-5.826,5.9a7.514,7.514,0,0,1-.532-.734c-.217-2.926.678-4.667,1.92-5.694h0l.293-.121a35.349,35.349,0,0,1,4.62-1c.244-.04.5-.076.754-.108,4.412-.6,10.792-.738,16.174,2.012,0,0,5,2.381,8.393,2.381s30.992.248,37.452,2.129a27.139,27.139,0,0,0,3.924.842,15.736,15.736,0,0,0,7.005-.671A8.549,8.549,0,0,1,300.295,184.54Z" transform="translate(-150.734 -123.189)" opacity="0.1"/>
    <path id="Caminho_183" data-name="Caminho 183" d="M303.5,179.709s-1.694,2.214-3.223,2.214-7.484-.248-10.588-1.229-18.32-1.724-18.32-1.724-21.548.081-22.275-.657-13.4-4.672-14.689-4.424c-.27.054-.931.171-1.813.32l-1.011.167a17.753,17.753,0,0,0-5.188.747,15.968,15.968,0,0,1-4.66.162v-.374a10.575,10.575,0,0,1,1.45-.711,38.671,38.671,0,0,1,9.178-1.449,25.316,25.316,0,0,1,12.375,2.349s5,2.381,8.393,2.381,30.992.243,37.452,2.129a27.712,27.712,0,0,0,3.924.837,16.1,16.1,0,0,0,8.553-1.247.211.211,0,0,1,.044.045,1.5,1.5,0,0,0,.111.122Z" transform="translate(-151.715 -121.958)" opacity="0.1"/>
    <path id="Caminho_184" data-name="Caminho 184" d="M218.883,182.3s-5.409-4.181,1.614-6.967c0,0,12.268-3.848,21.553.9,0,0,5,2.372,8.393,2.372s30.992.248,37.452,2.133a27.57,27.57,0,0,0,3.924.837,16.49,16.49,0,0,0,9.963-1.922c.443-.248.842-.374.962-.23.4.5.084,3.362-3.467,3.934-2.771.45-9.067-.4-11.714-.792-.687-.1-1.37-.234-2.048-.383-2.612-.576-10.641-2.192-15.54-1.445-5.888.9-22.519-.738-22.519-.738s-10.246-2.129-14.365-3.853S217.349,175.908,218.883,182.3Z" transform="translate(-149.024 -122.582)" fill="#fed253"/>
    <path id="Caminho_185" data-name="Caminho 185" d="M313.6,85.063c-.443-.648-6.141-5.279-8.464-7.152l4.19-.63a3.175,3.175,0,0,1,.412-.351A17.723,17.723,0,0,1,313.6,85.063Z" transform="translate(-198.143 -69.279)" opacity="0.1"/>
    <path id="Caminho_186" data-name="Caminho 186" d="M216.388,89.562l-1.858,2.786,7.1-.243.16-3.115Z" transform="translate(-119.407 -48.937)" opacity="0.1"/>
    <path id="Caminho_187" data-name="Caminho 187" d="M316.47,97.73l.807,2.538,4.522.738-1.938-3.034Z" transform="translate(-176.149 -53.743)" opacity="0.1"/>
    <path id="Caminho_188" data-name="Caminho 188" d="M205.18,347c.483.819,16.383,22.054,20.582,21.465S205.18,347,205.18,347Z" transform="translate(-142.503 -217.794)" opacity="0.1"/>
    <path id="Caminho_189" data-name="Caminho 189" d="M325.33,390.12s3.875,3.772,3.308,5.243S325.33,390.12,325.33,390.12Z" transform="translate(-209.381 -241.506)" opacity="0.1"/>
    <path id="Caminho_190" data-name="Caminho 190" d="M227.267,447.65s-3.392,16.14-1.614,16.653S227.267,447.65,227.267,447.65Z" transform="translate(-153.612 -273.143)" opacity="0.1"/>
    <path id="Caminho_191" data-name="Caminho 191" d="M328.24,586.91c.563,1.638,5.245,12.292,6.3,12.863S328.24,586.91,328.24,586.91Z" transform="translate(-211.001 -349.724)" opacity="0.1"/>
    <path id="Caminho_192" data-name="Caminho 192" d="M446.622,489.7c-.164.572-4.2,3.934-3.312,5.162S446.622,489.7,446.622,489.7Z" transform="translate(-274.981 -296.267)" opacity="0.1"/>
    <path id="Caminho_193" data-name="Caminho 193" d="M379.945,556.14c-.08.414-.887,9,.647,10.654S379.945,556.14,379.945,556.14Z" transform="translate(-239.624 -332.803)" opacity="0.1"/>
    <path id="Caminho_194" data-name="Caminho 194" d="M309.694,623.63c-1.171.662-2.381,1.3-3.614,1.913-1.33.657-2.66,1.283-4.017,1.872-.541.239-1.082.473-1.618.7q-1.224.513-2.421.986c-2.425.963-4.762,1.8-6.841,2.507-.807.274-1.578.526-2.3.761-3.618,1.166-6.021,1.8-6.021,1.8a6.43,6.43,0,0,0-1.672-.139h-.479a20.718,20.718,0,0,0-2.239.288c-4.953.9-11.949,3.425-16.166,5.077-2.217.86-3.658,1.476-3.658,1.476l-2.82.864-.47.144c-3.055.945-7.351,2.286-8.9,2.844-2.5.9-24.213,5.487-24.213,5.487a35.569,35.569,0,0,1-6.057,1.125,108.889,108.889,0,0,1-15.172.351c-5.081.333-13.3-.8-18.085-1.566l-.763-.122c-1.849-.306-3.024-.527-3.024-.527l.621-.869L192.5,630.773l.075-.108,11.86-16.6.443-.6,1.077-1.508s.647-.9,3.139-.959h.962a25.647,25.647,0,0,1,6.15,1.274l.576.176c8.588,2.5,21.863,1.872,21.863,1.872s8.26-1.35,14.751-2.16l.483-.063a58.667,58.667,0,0,1,6.4-.562c3.955.081,12.512-2.048,12.512-2.048a8.272,8.272,0,0,0,3.653-1.49c.137-.1.284-.207.443-.324.443-.338.953-.752,1.609-1.265,1.2-.932,2.878-2.2,5.52-3.97.231-.153.474-.306.736-.45s.594-.338.913-.5a34.256,34.256,0,0,1,8.034-2.7,46.43,46.43,0,0,1,6.992-.977h.35c6.651-.36,13.443.8,17.416,4.591a11.039,11.039,0,0,1,1.8,2.25,10.309,10.309,0,0,1,.647,1.224,11.605,11.605,0,0,1,.8,2.521q.049.243.08.486v.144c0,.13.027.261.035.392C322.179,614.8,316.672,619.669,309.694,623.63Z" transform="translate(-128.014 -355.68)" opacity="0.1"/>
    <path id="Caminho_195" data-name="Caminho 195" d="M179.15,647.276s14.365,2.7,21.872,2.21c0,0,13.8.738,21.229-1.472,0,0,21.725-4.591,24.213-5.491s12.188-3.853,12.188-3.853,18.888-8.03,24.213-6.72c0,0,41.81-10.978,38.822-25.808s-29.378-11.468-37.687-5.9-7.094,6.148-11.217,7.048c0,0-8.557,2.129-12.512,2.048s-21.632,2.786-21.632,2.786-13.882.657-22.435-2.048-10.251-.329-10.251-.329Z" transform="translate(-128.014 -354.455)" fill="#ffa2a2"/>
    <path id="Caminho_196" data-name="Caminho 196" d="M161.375,501.951a.225.225,0,0,1,0,.054,3.075,3.075,0,0,1-.253.968c-1.7,4.24-11.368,15.676-11.368,15.676a31.6,31.6,0,0,1-1.592,3.97,61.077,61.077,0,0,1-4.589,7.9,106.723,106.723,0,0,1-8.349,10.743H135.2a12.666,12.666,0,0,1-1.193.8,9.778,9.778,0,0,1-4.084,1.5,4.192,4.192,0,0,1-.754-.023,2.294,2.294,0,0,0,.443-.063l-.541-.162-.74-.234q-1.862-.594-3.693-1.3l-.74-.288q-1.774-.693-3.472-1.49l-.74-.342q-1.774-.837-3.472-1.769c-.408-.216-.811-.45-1.21-.671q-1.809-1.026-3.547-2.151-1.844-1.193-3.609-2.489c-.887-1.67-1.618-3.151-2.017-3.947a11.131,11.131,0,0,1-.7-5.136,2.481,2.481,0,0,1,.027-.45c.075-.963.191-1.625.191-1.625a23.185,23.185,0,0,1-1.774-2.809,3.339,3.339,0,0,1-.5-1.616,1.946,1.946,0,0,0-.062-.684,16.021,16.021,0,0,0-3.166-5.4c-1.011-1.13-1.073-5.352-.975-8.345.058-1.8.169-3.124.169-3.124a1.046,1.046,0,0,1-.421-.554,13.545,13.545,0,0,1-.718-3.052,3.229,3.229,0,0,0-.062-.45c-.284-2.066-.412-4.141-.412-4.141-3.281-2.426-4.842-6.211-5.569-9.587l-.093-.45a28.775,28.775,0,0,1-.505-6.3v-.563s.435-9.753,1.649-13.561c.049-.162.1-.311.155-.45a3.389,3.389,0,0,1,.346-.68,8.465,8.465,0,0,0,1.02-3.065c.182-.927.333-1.958.443-2.984.1-.855.182-1.706.244-2.493.173-2.107.226-3.749.226-3.749l-.82-4.1c-.226-1.121-.4-2.25-.519-3.38a4.01,4.01,0,0,0-.053-.45,38.612,38.612,0,0,1-.111-6.279,2.534,2.534,0,0,1,.027-.45,38.507,38.507,0,0,1,3.618-13.728l.222-.45q.443-.9.931-1.769c.235-.428.483-.851.74-1.269a37.155,37.155,0,0,1,2.217-3.245c.115-.153.235-.3.355-.45a36.43,36.43,0,0,1,4.593-4.807c4.478-3.907,8.588-5.6,12.321-5.734,16.325-.585,25.481,28.724,26.962,33.86.142.5.213.765.213.765s6.615,6.72,4.678,9.668a5.127,5.127,0,0,0-.67,2.124c-.532,3.965.993,10.5.993,10.5s.541,1.8,2.119,6.112l.466,1.26c.989,2.7,1.219,7.233.652,11.293-.545,3.889-1.827,7.327-3.88,8.21-4.2,1.8-3.068,3.6-2.1,5.081a20.387,20.387,0,0,1,1.432,3.322c.607,1.661,1.171,3.407,1.383,4.087.062.189.093.293.093.293a8.668,8.668,0,0,1,1.822-.5c.794-.113,1.578-.031,1.729.657.08.369.536.806,1.179,1.242A33.836,33.836,0,0,0,161.375,501.951Z" transform="translate(-79.087 -247.622)" opacity="0.1"/>
    <path id="Caminho_197" data-name="Caminho 197" d="M159.2,501.951h0a3,3,0,0,1-.253.99c-1.694,4.244-11.368,15.708-11.368,15.708a32.277,32.277,0,0,1-1.592,3.97,57.584,57.584,0,0,1-3.622,6.423,105.665,105.665,0,0,1-9.213,12.107l-.1.113s-.39.3-1.011.689a11.433,11.433,0,0,1-3.614,1.539l-.541-.162-.74-.234q-1.862-.594-3.693-1.3l-.74-.288q-1.774-.693-3.472-1.49l-.74-.342q-1.774-.837-3.472-1.769c-.408-.216-.811-.45-1.21-.671q-1.809-1.026-3.547-2.151-1.844-1.193-3.609-2.489-.816-.594-1.614-1.22c-.6-1.152-1.077-2.124-1.374-2.727a11.131,11.131,0,0,1-.7-5.135,2.481,2.481,0,0,1,.027-.45c.075-.963.191-1.625.191-1.625s-.359-.491-.794-1.157c-.244-.369-.505-.8-.74-1.22a4.218,4.218,0,0,1-.723-2.048,1.019,1.019,0,0,0,0-.234,2.215,2.215,0,0,0-.067-.45,16.04,16.04,0,0,0-3.17-5.4c-1.011-1.13-1.073-5.352-.98-8.345v-.45c.062-1.553.155-2.673.155-2.673-.5-.221-.887-1.854-1.135-3.6l-.066-.45c-.284-2.066-.412-4.141-.412-4.141-3.281-2.426-4.842-6.211-5.564-9.587a27.886,27.886,0,0,1-.576-7.2v-.113s.381-9.8,1.6-13.615c.049-.162.1-.311.155-.45a3.381,3.381,0,0,1,.395-.657c.674-.954,1.122-3.25,1.414-5.6l.053-.45c.368-3.151.47-6.243.47-6.243l-.825-4.1q-.337-1.688-.519-3.38c-.022-.148-.035-.3-.053-.45a38.62,38.62,0,0,1-.111-6.279,2.174,2.174,0,0,1,.031-.45,38.416,38.416,0,0,1,3.618-13.728c.071-.153.142-.3.222-.45a35.42,35.42,0,0,1,1.9-3.4c.239-.383.483-.761.74-1.134.4-.594.825-1.179,1.264-1.746l.355-.45a36.48,36.48,0,0,1,4.553-4.793c4.877-4.244,9.311-5.883,13.3-5.734,15.718.572,24.541,28.828,25.991,33.86.142.5.213.765.213.765s6.62,6.72,4.682,9.668a5.126,5.126,0,0,0-.669,2.124c-.536,3.965.993,10.5.993,10.5s.541,1.8,2.119,6.112c.142.4.3.819.443,1.26.989,2.7,1.219,7.233.652,11.293-.545,3.893-1.822,7.327-3.88,8.21-4.194,1.8-3.068,3.6-2.1,5.081a20.39,20.39,0,0,1,1.432,3.322c.767,2.12,1.472,4.379,1.472,4.379a8.583,8.583,0,0,1,.887-.293,4.472,4.472,0,0,1,1.915-.2.851.851,0,0,1,.758.657c.12.54,1.037,1.211,2.15,1.845a40.793,40.793,0,0,0,4.465,2.124Z" transform="translate(-77.88 -247.621)" fill="#ced7e7"/>
    <path id="Caminho_198" data-name="Caminho 198" d="M115.61,516.48c1.534-.081,18-6.553,21.393-4.343s24.386,16.55,24.386,16.55-13.155-17.45-24.616-21.546S115.61,516.48,115.61,516.48Z" transform="translate(-92.646 -305.431)" opacity="0.1"/>
    <path id="Caminho_199" data-name="Caminho 199" d="M169,587.46s16.467,3.358,18.968,5.653Z" transform="translate(-122.364 -350.027)" opacity="0.1"/>
    <path id="Caminho_200" data-name="Caminho 200" d="M154.624,643c-.239.248-6.207,13.845-5.728,13.845s5.569-8.1,5.569-8.1Z" transform="translate(-111.159 -380.569)" opacity="0.1"/>
    <path id="Caminho_201" data-name="Caminho 201" d="M181.731,606.75s-4.842,1.724-4.279,1.886S181.567,607.488,181.731,606.75Z" transform="translate(-127.044 -360.634)" opacity="0.1"/>
    <path id="Caminho_202" data-name="Caminho 202" d="M176.24,652.45c.807,1.719,3.387,6.882,3.955,6.063S176.24,652.45,176.24,652.45Z" transform="translate(-126.394 -385.766)" opacity="0.1"/>
    <path id="Caminho_203" data-name="Caminho 203" d="M258.9,311.84l-.692,1s-5.493-3.929-7.75-5.9-7.586,7.044-11.785,9.5-11.3,3.115-11.3,3.115-5.489-5.572-5.321-7.2-2.58-2.129-2.745-3.277a16.441,16.441,0,0,0-2.421-6.063c-.683-.864-.78-3.569-.718-5.923.443-.09.718-.14.718-.14a14.649,14.649,0,0,1,2.585-3.443c1.454-1.31,3.711-9.339,3.711-9.339,1.29-4.424,3.871-3.115,3.871-3.115,0,6.72,6.784,9.177,10.171,11.963s8.717,10,12.916,11.473C253.587,305.687,257.617,310.3,258.9,311.84Z" transform="translate(-148.612 -181.432)" opacity="0.1"/>
    <path id="Caminho_204" data-name="Caminho 204" d="M258.871,309.652l-.692,1s-5.516-3.92-7.772-5.9-7.586,7.044-11.785,9.5-11.3,3.119-11.3,3.119-5.489-5.577-5.321-7.2-2.58-2.129-2.744-3.281a16.413,16.413,0,0,0-2.421-6.063c-.683-.864-.78-3.569-.718-5.923l.718-.135a14.649,14.649,0,0,1,2.585-3.443c1.454-1.314,3.711-9.339,3.711-9.339,1.29-4.424,3.871-3.119,3.871-3.119,0,6.72,6.784,9.182,10.171,11.968s8.717,9.992,12.916,11.468C253.559,303.517,257.589,308.112,258.871,309.652Z" transform="translate(-148.584 -180.23)" fill="#ced7e7"/>
    <path id="Caminho_205" data-name="Caminho 205" d="M301.027,349.263s-4.757,2.62-8.473,2.867a6.881,6.881,0,0,1-1.454-.085h0s4.1-3.11,7.91-3.745Z" transform="translate(-190.328 -218.509)" opacity="0.1"/>
    <path id="Caminho_206" data-name="Caminho 206" d="M325.321,376.3s-6-2.372-7.981,1.2c.067-1.638.093-3,.093-3l6.54-1.314s.63,1.184,1.366,2.777C325.321,376.178,325.321,376.3,325.321,376.3Z" transform="translate(-204.934 -232.196)" opacity="0.1"/>
    <path id="Caminho_207" data-name="Caminho 207" d="M291.1,351.693s7.187-4.379,10.641-4.01c3.622.383,10.641.653,10.641.653s-2.421,5.572-2.1,6.72a58.45,58.45,0,0,1,.4,6.72s-7.263-2.867-8.473,2.457c0,0-3.955-5.982-6.62-7.786a18.282,18.282,0,0,1-4.5-4.753Z" transform="translate(-190.328 -218.158)" fill="#63667e"/>
    <path id="Caminho_208" data-name="Caminho 208" d="M349.334,334.879c-2.1,0-9.524-4.757-11.138-7.868s-3.875.324-5.972,1.476c-1.33.738-6.6-.806-9.444-1.926,1.441-.995,4.633-3.794,5.569-4.465,1.126-.824,2.261-14.1,2.261-14.1,4.035-2.129,8.393,17.207,8.393,17.207s7.591,2.3,8.233,3.934a5.85,5.85,0,0,0,1.556,1.6C349.68,333.007,350.167,334.879,349.334,334.879Z" transform="translate(-207.962 -196.257)" opacity="0.1"/>
    <path id="Caminho_209" data-name="Caminho 209" d="M350.647,332.705c-2.1,0-9.524-4.753-11.138-7.863s-3.875.324-5.972,1.472c-1.33.738-5.556-.689-8.4-1.8,1.441-.99,3.587-3.907,4.522-4.582,1.126-.819,2.261-14.092,2.261-14.092,4.035-2.129,8.393,17.207,8.393,17.207s7.591,2.3,8.234,3.934a5.849,5.849,0,0,0,1.556,1.6C350.993,330.833,351.481,332.705,350.647,332.705Z" transform="translate(-209.275 -195.07)" fill="#ced7e7"/>
    <path id="Caminho_210" data-name="Caminho 210" d="M446.915,611.01,517.106,551.6a3.725,3.725,0,0,1,2.509-.9l26.186.7s1.813,1.35-.847,4.3L478.74,610.857a4.176,4.176,0,0,1-2.527.963l-28.633.963a.989.989,0,0,1-.955-.646A1.014,1.014,0,0,1,446.915,611.01Z" transform="translate(-276.861 -329.81)" fill="#16e584"/>
    <path id="Caminho_211" data-name="Caminho 211" d="M523.94,631.009s15.332,22.288,32.367,1.557,12.109-31.623,6.943-32.2S529.021,622.489,523.94,631.009Z" transform="translate(-319.932 -357.118)" fill="#ffa2a2"/>
    <path id="Caminho_212" data-name="Caminho 212" d="M757.17,84.536S776.931,45.6,800.288,65.682c0,0,5.1,1.886,4.713,7.359,0,0-1.964-1.094-3.525,3.088a20.3,20.3,0,0,1-2.217,4.2,9.771,9.771,0,0,1-4.922,3.772h0s-10.481,7.971-29.9,1.823c0,0-5.489.8-6.376.108l6.38-4.735s3.241,4.883,7.981,5.442c0,0-7.981-5.086-7.068-6.189.186-.225,3.494-2.354,3.494-2.354s5.671,8.466,13.022,9.092c0,0-10.3-4.766-11.776-9.9l5.174-2.93s5.56,9.249,13.909,10.284c0,0-10.6-5.361-12.734-10.847l5.476-2.169s5.6,8.912,12.548,9.726c0,0-11.625-7.449-11.262-10.14,0,0,5.148-1.683,6.726-1.463,0,0,4.163,6.3,8.242,6.414,0,0-7.249-5.815-6.771-6.711,0,0,7.28-.383,11.084,1.4,0,0-5.409-3.056-11.084-2.561,0,0,2.567-3.065,5.915-3.74,0,0-4.013-1.674-7.679,3.853,0,0-5.662.527-6.362,1.166,0,0,2.864-5.977,6.389-8.52,0,0-5.254.941-7.857,9.042l-5.551,2.057s3.374-8.1,6.349-10.6c0,0-5.214,1.8-7.706,11.252L769.8,75.714s2.381-7.2,5.1-10.717c0,0-4.483,2.728-6.535,11.576l-3.192,2.282s1.831-5.23,2.492-6.684.328-1.755.328-1.755a18.979,18.979,0,0,0-4.181,9.348S757.538,84.9,757.17,84.536Z" transform="translate(-449.753 -59.93)" fill="#16e584" opacity="0.1"/>
    <path id="Caminho_213" data-name="Caminho 213" d="M941.5,147.274s8.93-17.594,19.482-8.52a3.362,3.362,0,0,1,2.128,3.322s-.887-.491-1.592,1.4a9.056,9.056,0,0,1-.993,1.895,4.442,4.442,0,0,1-2.217,1.706h0s-4.74,3.6-13.514.824c0,0-2.478.36-2.878.05l2.882-2.142a5.883,5.883,0,0,0,3.609,2.457s-3.6-2.3-3.193-2.8c.08-.1,1.574-1.062,1.574-1.062s2.563,3.826,5.888,4.109c0,0-4.655-2.156-5.321-4.5L949.7,142.7s2.51,4.181,6.283,4.649c0,0-4.789-2.421-5.764-4.9l2.474-.981s2.527,4.028,5.666,4.4c0,0-5.254-3.367-5.085-4.582a12.655,12.655,0,0,1,3.037-.662s1.88,2.849,3.724,2.894c0,0-3.276-2.624-3.059-3.029,0,0,3.29-.171,5,.635a9.825,9.825,0,0,0-5-1.157,5.482,5.482,0,0,1,2.66-1.692s-1.814-.756-3.472,1.742a12.487,12.487,0,0,0-2.873.527,12.2,12.2,0,0,1,2.886-3.848s-2.377.423-3.547,4.087l-2.483.945s1.521-3.659,2.869-4.793c0,0-2.359.815-3.485,5.081l-2.306,1.269a20.734,20.734,0,0,1,2.3-4.843s-2.026,1.233-2.948,5.23l-1.446,1.031s.829-2.363,1.126-3.02.146-.792.146-.792a8.612,8.612,0,0,0-1.889,4.235S941.655,147.436,941.5,147.274Z" transform="translate(-552.355 -101.847)" fill="#16e584" opacity="0.1"/>
    <path id="Caminho_214" data-name="Caminho 214" d="M723.27,192.754s8.93-17.594,19.509-8.52a3.371,3.371,0,0,1,2.128,3.326s-.887-.5-1.592,1.4a9.235,9.235,0,0,1-.993,1.895,4.44,4.44,0,0,1-2.239,1.706h0s-4.735,3.6-13.51.824c0,0-2.478.365-2.878.05l2.882-2.142a5.9,5.9,0,0,0,3.6,2.462s-3.6-2.3-3.192-2.8c.084-.1,1.578-1.062,1.578-1.062s2.563,3.826,5.884,4.109c0,0-4.651-2.156-5.321-4.5l2.341-1.314s2.514,4.177,6.287,4.645c0,0-4.789-2.421-5.764-4.9l2.474-.981s2.532,4.028,5.671,4.4c0,0-5.254-3.367-5.09-4.582a12.7,12.7,0,0,1,3.042-.662s1.88,2.849,3.724,2.9c0,0-3.277-2.629-3.059-3.034,0,0,3.285-.171,5,.635a9.849,9.849,0,0,0-5.006-1.157,5.483,5.483,0,0,1,2.66-1.692s-1.809-.756-3.467,1.742a12.486,12.486,0,0,0-2.873.527,12.121,12.121,0,0,1,2.886-3.848s-2.377.423-3.547,4.087l-2.514.945s1.525-3.659,2.869-4.789c0,0-2.354.81-3.48,5.077l-2.31,1.269a20.825,20.825,0,0,1,2.305-4.843s-2.026,1.233-2.953,5.23l-1.445,1.031s.829-2.363,1.126-3.02.151-.792.151-.792a8.566,8.566,0,0,0-1.889,4.235S723.425,192.916,723.27,192.754Z" transform="translate(-430.884 -126.857)" fill="#16e584" opacity="0.1"/>
  </g>
</svg>
