<svg xmlns="http://www.w3.org/2000/svg" width="250.877" height="140.5" viewBox="0 0 250.877 140.5">
  <g id="ilustracaoModal" transform="translate(0)">
    <path id="Caminho_215" data-name="Caminho 215" d="M731.488,353.6H726.72a.613.613,0,0,1-.613-.556l-.954-9.783h7.9l-.954,9.783A.613.613,0,0,1,731.488,353.6Z" transform="translate(-557.496 -309.015)" fill="#e6e6e6"/>
    <path id="Caminho_216" data-name="Caminho 216" d="M731.858,341.586h-7.877a.616.616,0,0,1-.615-.615v-1.477a.616.616,0,0,1,.615-.615h7.877a.616.616,0,0,1,.615.615v1.477A.616.616,0,0,1,731.858,341.586Z" transform="translate(-556.312 -306.113)" fill="#ccc"/>
    <path id="Caminho_217" data-name="Caminho 217" d="M541.44,325.7H522.549v-5.735c5.969-4.154,11.258-3.793,18.216.337Z" transform="translate(-423.238 -291.631)" fill="#16e584"/>
    <path id="Caminho_218" data-name="Caminho 218" d="M272.094,371.62h-4.136l-.618-15.952h4.755Z" transform="translate(-177.157 -235.689)" fill="#ffb8b8"/>
    <path id="Caminho_219" data-name="Caminho 219" d="M486.511,646.063H473.177v-.169a5.19,5.19,0,0,1,5.19-5.19h8.145Z" transform="translate(-390.52 -506.122)" fill="#2f2e41"/>
    <path id="Caminho_220" data-name="Caminho 220" d="M350.485,371.62h4.136l.618-15.952h-4.755Z" transform="translate(-232.254 -235.689)" fill="#ffb8b8"/>
    <path id="Caminho_221" data-name="Caminho 221" d="M575.507,640.7h8.145a5.19,5.19,0,0,1,5.19,5.19v.168H575.507Z" transform="translate(-458.331 -506.122)" fill="#2f2e41"/>
    <path id="Caminho_222" data-name="Caminho 222" d="M520.767,523.585a1.525,1.525,0,0,1-1.482-1.188l-10.251-44.71a.492.492,0,0,0-.494-.4h0a.492.492,0,0,0-.493.4L498.632,522.1a1.525,1.525,0,0,1-1.485,1.2h-4.484a1.518,1.518,0,0,1-1.515-1.608l3.34-56.286,1.344-.4h.025l26.4.231,5.623,56.224a1.517,1.517,0,0,1-1.389,1.66l-5.6.452C520.848,523.583,520.807,523.585,520.767,523.585Z" transform="translate(-402.427 -389.698)" fill="#2f2e41"/>
    <circle id="Elipse_23" data-name="Elipse 23" cx="8.285" cy="8.285" r="8.285" transform="translate(99.153 7.222)" fill="#ffb8b8"/>
    <path id="Caminho_223" data-name="Caminho 223" d="M511.527,375.452a14.3,14.3,0,0,1-4.293-.6A9.478,9.478,0,0,1,501.486,370a1.52,1.52,0,0,1-.113-1.132c.914-3.119,5.329-19.33,2.512-32.216a13.657,13.657,0,0,1,1.941-10.5,13.486,13.486,0,0,1,8.746-5.883h0c.467-.091.937-.166,1.4-.223a13.438,13.438,0,0,1,10.882,3.58,13.77,13.77,0,0,1,4.323,10.916l-2.165,34.747a1.5,1.5,0,0,1-.809,1.249C525.706,371.848,518.215,375.452,511.527,375.452Z" transform="translate(-409.165 -293.569)" fill="#3f3d56"/>
    <path id="Caminho_224" data-name="Caminho 224" d="M537.335,257.045a10.173,10.173,0,0,0-11.15-6.269l2.612,2.111c-3.246.109-6.662-.123-8.98,2.152.738-.02,1.7,1.558,2.443,1.537a3.869,3.869,0,0,0-3.239,2.234,6.363,6.363,0,0,0-.376,4.047c.272,1.352,2.351,4.521,2.91,5.782-.1-3.3,6.392-11.157,9.561-10.337a8.694,8.694,0,0,0-4.014,3.048,11.774,11.774,0,0,1,6.983-1.143,4.943,4.943,0,0,0,1.665.093,2.032,2.032,0,0,0,1.205-3.248Z" transform="translate(-420.537 -247.636)" fill="#2f2e41"/>
    <path id="Caminho_225" data-name="Caminho 225" d="M496.031,375.527a1.518,1.518,0,0,1-.608-.128l-15.72-6.861a1.508,1.508,0,0,1-.861-1.78l10.407-39.313a5.689,5.689,0,0,1,7.064-4.015l4.161,1.188L497.544,374.1a1.522,1.522,0,0,1-.724,1.2A1.506,1.506,0,0,1,496.031,375.527Z" transform="translate(-394.239 -295.73)" fill="#16e584"/>
    <path id="Caminho_226" data-name="Caminho 226" d="M573.659,366.754l-.692-2.608-1-3.792-.482-1.818-1-3.782-7.229-27.314a5.683,5.683,0,0,0-7.064-4.014l-4.159,1.187,2.061,34.8.213,3.633.135,2.29v0l.216,3.613.3,5.138a1.528,1.528,0,0,0,1.514,1.43,1.545,1.545,0,0,0,.607-.128l15.72-6.861A1.507,1.507,0,0,0,573.659,366.754Z" transform="translate(-442.773 -295.728)" fill="#16e584"/>
    <path id="Caminho_227" data-name="Caminho 227" d="M347.383,178.762l-17.18,4.514-.213-3.633,16.391-4.662Z" transform="translate(-218.673 -115.953)" fill="#f2f2f2"/>
    <path id="Caminho_228" data-name="Caminho 228" d="M349.55,195.372l-18.314,4.81-.216-3.613v0l17.528-4.986Z" transform="translate(-219.356 -126.953)" fill="#f2f2f2"/>
    <path id="Caminho_229" data-name="Caminho 229" d="M274.663,180.935l-.213,3.566-16.85-5.02.988-3.731Z" transform="translate(-170.703 -116.463)" fill="#f2f2f2"/>
    <path id="Caminho_230" data-name="Caminho 230" d="M271.422,197.749,254.228,192.2l-.988,3.741,17.973,5.354Z" transform="translate(-167.814 -127.364)" fill="#f2f2f2"/>
    <path id="Caminho_231" data-name="Caminho 231" d="M476.2,399.379a3.624,3.624,0,0,0,2.376-5.023l8.083-25.376-5.732-1.2-7.411,24.879a3.644,3.644,0,0,0,2.683,6.72Z" transform="translate(-389.481 -325.265)" fill="#ffb8b8"/>
    <path id="Caminho_232" data-name="Caminho 232" d="M500.4,334.332h0c1.646.168,2.572,2.018,2.162,4.323L500.6,349.712c-.147.829-.829,1.485-1.4,1.343l-6.642-1.66c-.511-.128-.7-.854-.41-1.581l3.987-10C497.008,335.639,498.809,334.169,500.4,334.332Z" transform="translate(-403.006 -303.093)" fill="#3f3d56"/>
    <path id="Caminho_233" data-name="Caminho 233" d="M525.344,241.75h0a10.792,10.792,0,0,1,10.786,10.456h2.033a.675.675,0,0,1,.675.675v2.7a.675.675,0,0,1-.675.675H515.224a.675.675,0,0,1-.675-.675v-3.036a10.8,10.8,0,0,1,10.795-10.795Z" transform="translate(-417.936 -241.75)" fill="#16e584"/>
    <path id="Caminho_234" data-name="Caminho 234" d="M537.927,419.245h-4.768a.613.613,0,0,1-.613-.556l-.954-9.783h7.9l-.954,9.783A.613.613,0,0,1,537.927,419.245Z" transform="translate(-429.23 -352.519)" fill="#e6e6e6"/>
    <path id="Caminho_235" data-name="Caminho 235" d="M538.3,407.236H530.42a.616.616,0,0,1-.615-.615v-1.477a.616.616,0,0,1,.615-.615H538.3a.616.616,0,0,1,.615.615v1.477A.616.616,0,0,1,538.3,407.236Z" transform="translate(-428.046 -349.617)" fill="#ccc"/>
    <path id="Caminho_236" data-name="Caminho 236" d="M535.9,391.221a3.546,3.546,0,0,1,.549.108l12.7-10.891-.742-4,5.884-1.909,2,6.946a2.7,2.7,0,0,1-1.15,3.028l-16.083,10.178a3.541,3.541,0,1,1-3.158-3.464Z" transform="translate(-429.485 -329.741)" fill="#ffb8b8"/>
    <path id="Caminho_237" data-name="Caminho 237" d="M577.392,336.864h0c1.758-.492,3.515.846,4.1,3.126l2.825,10.94c.212.82-.2,1.692-.842,1.784l-7.525,1.082c-.579.083-1.089-.511-1.11-1.293l-.292-10.765C574.487,339.4,575.688,337.341,577.392,336.864Z" transform="translate(-457.696 -304.711)" fill="#3f3d56"/>
    <path id="Caminho_238" data-name="Caminho 238" d="M866.7,498.2a56.5,56.5,0,0,1-8.121-15.157,1.451,1.451,0,0,1,.685-1.747l11.856-6.353a1.433,1.433,0,0,1,1.257-.051,1.457,1.457,0,0,1,.83.973,34.519,34.519,0,0,0,7.572,14.131,1.457,1.457,0,0,1,.35,1.23,1.432,1.432,0,0,1-.739,1.018l-11.856,6.352A1.451,1.451,0,0,1,866.7,498.2Z" transform="translate(-645.863 -396.162)" fill="#ccc"/>
    <path id="Caminho_239" data-name="Caminho 239" d="M869.5,499.576a.438.438,0,0,0,.547.113l11.856-6.353a.421.421,0,0,0,.22-.3.444.444,0,0,0-.11-.381,35.532,35.532,0,0,1-7.795-14.547.445.445,0,0,0-.256-.3.42.42,0,0,0-.374.016l-11.856,6.352a.438.438,0,0,0-.209.519A55.5,55.5,0,0,0,869.5,499.576Z" transform="translate(-647.85 -398.15)" fill="#fff"/>
    <path id="Caminho_240" data-name="Caminho 240" d="M882.431,497.635l-6.457,2.85a1.013,1.013,0,0,1-1.334-.517l-.16-.362a1.013,1.013,0,0,1,.517-1.334l6.457-2.85a1.013,1.013,0,0,1,1.334.517l.16.362A1.013,1.013,0,0,1,882.431,497.635Z" transform="translate(-656.393 -409.792)" fill="#ccc"/>
    <path id="Caminho_241" data-name="Caminho 241" d="M889.431,510.635l-6.457,2.85a1.013,1.013,0,0,1-1.334-.517l-.16-.362a1.013,1.013,0,0,1,.517-1.334l6.457-2.85a1.013,1.013,0,0,1,1.335.517l.16.362a1.013,1.013,0,0,1-.517,1.335Z" transform="translate(-661.031 -418.407)" fill="#ccc"/>
    <path id="Caminho_242" data-name="Caminho 242" d="M853.611,417.577a3.624,3.624,0,0,1-.7-5.513l-2.723-38.644,7.844.761.215,37.845a3.644,3.644,0,0,1-4.641,5.552Z" transform="translate(-640.355 -329.002)" fill="#a0616a"/>
    <path id="Caminho_243" data-name="Caminho 243" d="M853.082,380.529a1.512,1.512,0,0,1-.627-1.147l-.575-10.416a4.182,4.182,0,0,1,8.213-1.325l2.525,9.312a1.52,1.52,0,0,1-1.068,1.862l-7.182,1.947a1.512,1.512,0,0,1-1.286-.234Z" transform="translate(-641.47 -323.127)" fill="#3f3d56"/>
    <path id="Caminho_244" data-name="Caminho 244" d="M575.687,372.072h-4.136l-1.967-15.952h6.1Z" transform="translate(-377.444 -235.988)" fill="#a0616a"/>
    <path id="Caminho_245" data-name="Caminho 245" d="M556.794,399.9h7.976v5.022h-13a5.022,5.022,0,0,1,5.022-5.022Z" transform="translate(-365.64 -265.003)" fill="#2f2e41"/>
    <path id="Caminho_246" data-name="Caminho 246" d="M621.687,372.072h-4.136l-1.967-15.952h6.1Z" transform="translate(-407.926 -235.988)" fill="#a0616a"/>
    <path id="Caminho_247" data-name="Caminho 247" d="M602.794,399.9h7.976v5.022h-13a5.022,5.022,0,0,1,5.022-5.022Z" transform="translate(-396.123 -265.003)" fill="#2f2e41"/>
    <path id="Caminho_248" data-name="Caminho 248" d="M800.215,524.456l-4.553-.217a1.518,1.518,0,0,1-1.446-1.505c-1.2-18.526-2.863-38.391-.318-46.065a1.518,1.518,0,0,1,1.736-1.513l18.214,2.644a1.509,1.509,0,0,1,1.3,1.491c2.325,9.087,2.431,25.564,2.343,42.684a1.518,1.518,0,0,1-1.518,1.529h-4.908a1.511,1.511,0,0,1-1.5-1.282l-3.028-19.251a1.181,1.181,0,0,0-2.339.043l-2.4,20.106a1.524,1.524,0,0,1-1.508,1.338Z" transform="translate(-602.167 -396.409)" fill="#2f2e41"/>
    <path id="Caminho_249" data-name="Caminho 249" d="M805.06,395.453a22.913,22.913,0,0,0-8.663-2.967,1.49,1.49,0,0,1-1.03-.564,1.51,1.51,0,0,1-.314-1.147l4.364-32.4a11.205,11.205,0,0,1,6.532-8.756,10.9,10.9,0,0,1,10.591.83q.224.149.44.3a11.192,11.192,0,0,1,4.263,11.663c-2.676,10.948-3.6,28.9-3.753,32.384a1.506,1.506,0,0,1-.984,1.351,15.208,15.208,0,0,1-5.136.914A12.861,12.861,0,0,1,805.06,395.453Z" transform="translate(-603.807 -312.569)" fill="#3f3d56"/>
    <circle id="Elipse_24" data-name="Elipse 24" cx="8.285" cy="8.285" r="8.285" transform="translate(196.618 16.077)" fill="#a0616a"/>
    <path id="Caminho_250" data-name="Caminho 250" d="M822.683,297.046a2.676,2.676,0,0,1-4.617-1.487,2.711,2.711,0,0,1,0-.525c.1-1,.68-1.9.542-2.953a1.548,1.548,0,0,0-.283-.725c-1.232-1.649-4.123.738-5.285-.755-.713-.915.125-2.357-.422-3.38-.722-1.351-2.86-.684-4.2-1.424-1.492-.823-1.4-3.112-.421-4.5a7.085,7.085,0,0,1,5.372-2.735,14.408,14.408,0,0,1,6.069,1.185,12.129,12.129,0,0,1,5.735,3.976,9.707,9.707,0,0,1,.981,8.265C825.655,293.657,823.946,295.7,822.683,297.046Z" transform="translate(-611.917 -266.129)" fill="#2f2e41"/>
    <path id="Caminho_251" data-name="Caminho 251" d="M813.162,349.8c-.145-.681-1.39-1.612-3.171-2.372a19.611,19.611,0,0,0-17.71,1.518.836.836,0,0,0-.772.658l-5.991,26.5-.779,3.451-.516,2.284-.779,3.441-.415,1.839a.846.846,0,0,0,.749,1.029l25.87,2.233c.024,0,.051,0,.074,0a.843.843,0,0,0,.837-.789l.246-3.748.263-4.008.115-1.737.26-4,1.724-26.258v-.024Z" transform="translate(-595.834 -310.831)" fill="#16e584"/>
    <path id="Caminho_252" data-name="Caminho 252" d="M732.837,356.858a3.57,3.57,0,0,1,.081.553l14.491,8.36,3.522-2.028,3.755,4.916-7.535,5.371-16.532-13.042a3.541,3.541,0,1,1,2.218-4.129Z" transform="translate(-557.958 -316.217)" fill="#a0616a"/>
    <path id="Caminho_253" data-name="Caminho 253" d="M791.278,367.22a1.511,1.511,0,0,1,.436-1.232l7.375-7.377a4.182,4.182,0,0,1,6.466,5.234l-5.252,8.093a1.52,1.52,0,0,1-2.1.447l-6.242-4.051A1.512,1.512,0,0,1,791.278,367.22Z" transform="translate(-601.309 -318.377)" fill="#3f3d56"/>
    <path id="Caminho_254" data-name="Caminho 254" d="M586.693,193.5l-.26,4-26.444-.546.779-3.451Z" transform="translate(-371.086 -128.226)" fill="#f2f2f2"/>
    <path id="Caminho_255" data-name="Caminho 255" d="M583.775,210.5l-.263,4.008-27.361-.567.78-3.441Z" transform="translate(-368.541 -139.491)" fill="#f2f2f2"/>
    <path id="Caminho_256" data-name="Caminho 256" d="M809.542,266.25h0a10.792,10.792,0,0,0-10.786,10.456h-2.033a.675.675,0,0,0-.675.675v2.7a.675.675,0,0,0,.675.675h22.939a.675.675,0,0,0,.675-.675v-3.036a10.8,10.8,0,0,0-10.795-10.795Z" transform="translate(-604.476 -257.985)" fill="#16e584"/>
    <path id="Caminho_257" data-name="Caminho 257" d="M290.927,516.581A13.177,13.177,0,0,1,278.2,514.34c-4.457-3.741-5.854-9.9-6.991-15.61l-3.363-16.879,7.041,4.848c5.063,3.486,10.241,7.084,13.746,12.134s5.036,11.943,2.219,17.408" transform="translate(-254.456 -400.856)" fill="#f8f8f8"/>
    <path id="Caminho_258" data-name="Caminho 258" d="M314.667,579.141c.713-5.191,1.445-10.448.946-15.694a24.684,24.684,0,0,0-4.759-12.942,21.531,21.531,0,0,0-5.523-5.005c-.552-.349-1.061.527-.511.874a20.467,20.467,0,0,1,8.1,9.768,32.807,32.807,0,0,1,1.742,14.132c-.184,2.88-.573,5.741-.965,8.6a.524.524,0,0,0,.353.622.509.509,0,0,0,.622-.353Z" transform="translate(-278.799 -442.981)" fill="#f2f2f2"/>
    <path id="Caminho_259" data-name="Caminho 259" d="M257.153,597.525a9.7,9.7,0,0,1-8.452,4.362c-4.278-.2-7.845-3.189-11.056-6.024l-9.5-8.385,6.286-.3c4.52-.216,9.157-.418,13.462.976s8.276,4.749,9.063,9.2" transform="translate(-228.148 -470.55)" fill="#f8f8f8"/>
    <path id="Caminho_260" data-name="Caminho 260" d="M299.125,623.462c-3.43-6.069-7.408-12.814-14.517-14.97a16.2,16.2,0,0,0-6.106-.63c-.648.056-.486,1.055.161,1a15.05,15.05,0,0,1,9.744,2.578,25.33,25.33,0,0,1,6.7,7.228c1.109,1.689,2.1,3.449,3.1,5.208.318.562,1.246.156.924-.412Z" transform="translate(-261.243 -484.318)" fill="#f2f2f2"/>
    <path id="Caminho_261" data-name="Caminho 261" d="M498.372,656.925H258.189a.337.337,0,1,1,0-.675H498.372a.337.337,0,1,1,0,.675Z" transform="translate(-247.832 -516.425)" fill="#f1f1f1"/>
  </g>
</svg>
