<svg xmlns="http://www.w3.org/2000/svg" width="532" height="467.334" viewBox="0 0 532 467.334">
  <g id="ilustracaoResponda" transform="translate(0 0)">
    <path id="Caminho_34" data-name="Caminho 34" d="M908.476,762.549V716.237S926.524,749.07,908.476,762.549Z" transform="translate(-444.992 -312.127)" fill="#f1f1f1"/>
    <path id="Caminho_35" data-name="Caminho 35" d="M891.044,770.962l-34.116-31.319S893.32,748.551,891.044,770.962Z" transform="translate(-426.445 -320.549)" fill="#f1f1f1"/>
    <path id="Caminho_36" data-name="Caminho 36" d="M286.451,762.549V716.237S268.4,749.07,286.451,762.549Z" transform="translate(-218.296 -312.127)" fill="#f1f1f1"/>
    <path id="Caminho_37" data-name="Caminho 37" d="M289.16,770.962l34.116-31.319S286.884,748.551,289.16,770.962Z" transform="translate(-222.121 -320.549)" fill="#f1f1f1"/>
    <path id="Caminho_38" data-name="Caminho 38" d="M649.139,191.949h-2.473V124.211a39.2,39.2,0,0,0-39.2-39.2H463.95a39.2,39.2,0,0,0-39.205,39.2V495.826a39.205,39.205,0,0,0,39.2,39.2H607.462a39.205,39.205,0,0,0,39.205-39.2V240.165h2.473Z" transform="translate(-270.942 -85.005)" fill="#3f3d56"/>
    <path id="Caminho_39" data-name="Caminho 39" d="M615.123,100.938H596.39A13.91,13.91,0,0,1,583.511,120.1H501.3a13.91,13.91,0,0,1-12.879-19.163h-17.5a29.278,29.278,0,0,0-29.278,29.278v371.07a29.278,29.278,0,0,0,29.278,29.278h144.2A29.278,29.278,0,0,0,644.4,501.286h0V130.215a29.278,29.278,0,0,0-29.277-29.277Z" transform="translate(-277.022 -90.738)" fill="#fff"/>
    <path id="Caminho_40" data-name="Caminho 40" d="M613.954,725.977H476.974c-15.739,0-28.544-11.429-28.544-25.477V682.056c0-11.2,10.2-20.306,22.732-20.306h148.6c12.534,0,22.732,9.109,22.732,20.306V700.5C642.5,714.549,629.693,725.977,613.954,725.977Z" transform="translate(-279.464 -292.522)" fill="#e5e5e5"/>
    <path id="Caminho_41" data-name="Caminho 41" d="M497.176,258.357H466.622a2.067,2.067,0,0,1-2.064-2.065V225.738a2.067,2.067,0,0,1,2.064-2.065h30.555a2.067,2.067,0,0,1,2.064,2.064v30.555a2.067,2.067,0,0,1-2.065,2.064Z" transform="translate(-285.267 -134.899)" fill="#16e584"/>
    <path id="Caminho_42" data-name="Caminho 42" d="M569.413,258.357H538.858a2.067,2.067,0,0,1-2.065-2.065V225.738a2.067,2.067,0,0,1,2.065-2.065h30.555a2.067,2.067,0,0,1,2.065,2.065v30.555a2.067,2.067,0,0,1-2.065,2.064Z" transform="translate(-311.258 -134.899)" fill="#e5e5e5"/>
    <path id="Caminho_43" data-name="Caminho 43" d="M641.649,258.357H611.094a2.067,2.067,0,0,1-2.065-2.065V225.738a2.067,2.067,0,0,1,2.065-2.065h30.555a2.067,2.067,0,0,1,2.065,2.065v30.555A2.067,2.067,0,0,1,641.649,258.357Z" transform="translate(-337.249 -134.899)" fill="#e5e5e5"/>
    <path id="Caminho_44" data-name="Caminho 44" d="M713.885,258.357H683.331a2.067,2.067,0,0,1-2.065-2.065V225.738a2.067,2.067,0,0,1,2.065-2.065h30.555a2.067,2.067,0,0,1,2.065,2.064v30.555A2.067,2.067,0,0,1,713.885,258.357Z" transform="translate(-363.24 -134.899)" fill="#e5e5e5"/>
    <path id="Caminho_45" data-name="Caminho 45" d="M497.006,346.718H466.451a2.067,2.067,0,0,1-2.065-2.065V314.1a2.067,2.067,0,0,1,2.065-2.064h30.555a2.067,2.067,0,0,1,2.065,2.064v30.555A2.067,2.067,0,0,1,497.006,346.718Z" transform="translate(-285.205 -166.692)" fill="#e5e5e5"/>
    <path id="Caminho_46" data-name="Caminho 46" d="M569.242,346.718H538.687a2.067,2.067,0,0,1-2.064-2.065V314.1a2.067,2.067,0,0,1,2.064-2.064h30.555a2.067,2.067,0,0,1,2.065,2.064v30.555A2.067,2.067,0,0,1,569.242,346.718Z" transform="translate(-311.196 -166.692)" fill="#e5e5e5"/>
    <path id="Caminho_47" data-name="Caminho 47" d="M641.478,346.718H610.924a2.067,2.067,0,0,1-2.065-2.065V314.1a2.067,2.067,0,0,1,2.065-2.065h30.555a2.067,2.067,0,0,1,2.065,2.064v30.555A2.067,2.067,0,0,1,641.478,346.718Z" transform="translate(-337.188 -166.692)" fill="#16e584"/>
    <path id="Caminho_48" data-name="Caminho 48" d="M713.714,346.718H683.159a2.067,2.067,0,0,1-2.064-2.065V314.1a2.067,2.067,0,0,1,2.064-2.065h30.555a2.067,2.067,0,0,1,2.064,2.064v30.555a2.067,2.067,0,0,1-2.065,2.065Z" transform="translate(-363.178 -166.692)" fill="#16e584"/>
    <path id="Caminho_49" data-name="Caminho 49" d="M496.835,435.078H466.28a2.067,2.067,0,0,1-2.064-2.065V402.458a2.067,2.067,0,0,1,2.064-2.065h30.555a2.067,2.067,0,0,1,2.065,2.065v30.555A2.067,2.067,0,0,1,496.835,435.078Z" transform="translate(-285.144 -198.484)" fill="#e5e5e5"/>
    <path id="Caminho_50" data-name="Caminho 50" d="M569.071,435.078H538.517a2.067,2.067,0,0,1-2.065-2.065V402.458a2.067,2.067,0,0,1,2.065-2.065h30.555a2.067,2.067,0,0,1,2.065,2.065v30.555A2.067,2.067,0,0,1,569.071,435.078Z" transform="translate(-311.135 -198.484)" fill="#e5e5e5"/>
    <path id="Caminho_51" data-name="Caminho 51" d="M641.307,435.078H610.753a2.067,2.067,0,0,1-2.065-2.065V402.458a2.067,2.067,0,0,1,2.065-2.065h30.555a2.067,2.067,0,0,1,2.065,2.065v30.555a2.067,2.067,0,0,1-2.065,2.065Z" transform="translate(-337.126 -198.484)" fill="#e5e5e5"/>
    <path id="Caminho_52" data-name="Caminho 52" d="M713.544,435.078H682.989a2.067,2.067,0,0,1-2.064-2.065V402.458a2.067,2.067,0,0,1,2.064-2.065h30.555a2.067,2.067,0,0,1,2.064,2.065v30.555a2.067,2.067,0,0,1-2.064,2.065Z" transform="translate(-363.117 -198.484)" fill="#e5e5e5"/>
    <path id="Caminho_53" data-name="Caminho 53" d="M496.664,523.438H466.11a2.067,2.067,0,0,1-2.065-2.065V490.818a2.067,2.067,0,0,1,2.065-2.065h30.554a2.067,2.067,0,0,1,2.065,2.065v30.555a2.067,2.067,0,0,1-2.065,2.065Z" transform="translate(-285.082 -230.277)" fill="#e5e5e5"/>
    <path id="Caminho_54" data-name="Caminho 54" d="M568.9,523.438H538.346a2.067,2.067,0,0,1-2.065-2.065V490.818a2.067,2.067,0,0,1,2.065-2.065H568.9a2.067,2.067,0,0,1,2.065,2.065v30.555a2.067,2.067,0,0,1-2.064,2.065Z" transform="translate(-311.073 -230.277)" fill="#e5e5e5"/>
    <path id="Caminho_55" data-name="Caminho 55" d="M641.137,523.438H610.582a2.067,2.067,0,0,1-2.065-2.065V490.818a2.067,2.067,0,0,1,2.065-2.065h30.555a2.067,2.067,0,0,1,2.065,2.065v30.555A2.067,2.067,0,0,1,641.137,523.438Z" transform="translate(-337.065 -230.277)" fill="#e5e5e5"/>
    <path id="Caminho_56" data-name="Caminho 56" d="M713.373,523.438H682.818a2.067,2.067,0,0,1-2.065-2.065V490.818a2.067,2.067,0,0,1,2.065-2.065h30.555a2.067,2.067,0,0,1,2.065,2.065v30.555a2.067,2.067,0,0,1-2.065,2.065Z" transform="translate(-363.056 -230.277)" fill="#e5e5e5"/>
    <path id="Caminho_57" data-name="Caminho 57" d="M497.176,720.8H466.622a2.067,2.067,0,0,1-2.065-2.065V688.178a2.067,2.067,0,0,1,2.064-2.065h30.555a2.067,2.067,0,0,1,2.064,2.065v30.555a2.067,2.067,0,0,1-2.065,2.065Z" transform="translate(-285.267 -301.288)" fill="#fff"/>
    <path id="Caminho_58" data-name="Caminho 58" d="M569.413,720.8H538.858a2.067,2.067,0,0,1-2.065-2.065V688.178a2.067,2.067,0,0,1,2.065-2.065h30.555a2.067,2.067,0,0,1,2.065,2.065v30.555a2.067,2.067,0,0,1-2.065,2.065Z" transform="translate(-311.258 -301.289)" fill="#fff"/>
    <path id="Caminho_59" data-name="Caminho 59" d="M641.649,720.8H611.094a2.067,2.067,0,0,1-2.065-2.065V688.178a2.067,2.067,0,0,1,2.065-2.065h30.555a2.067,2.067,0,0,1,2.065,2.065v30.555a2.067,2.067,0,0,1-2.065,2.065Z" transform="translate(-337.249 -301.289)" fill="#fff"/>
    <path id="Caminho_60" data-name="Caminho 60" d="M713.885,720.8H683.331a2.067,2.067,0,0,1-2.065-2.065V688.178a2.067,2.067,0,0,1,2.065-2.065h30.555a2.067,2.067,0,0,1,2.065,2.065v30.555a2.067,2.067,0,0,1-2.065,2.065Z" transform="translate(-363.24 -301.288)" fill="#fff"/>
    <circle id="Elipse_9" data-name="Elipse 9" cx="4.129" cy="4.129" r="4.129" transform="translate(246.898 346.838)" fill="#e5e5e5"/>
    <circle id="Elipse_10" data-name="Elipse 10" cx="4.129" cy="4.129" r="4.129" transform="translate(261.762 346.838)" fill="#e5e5e5"/>
    <circle id="Elipse_11" data-name="Elipse 11" cx="4.129" cy="4.129" r="4.129" transform="translate(276.626 346.838)" fill="#e5e5e5"/>
    <path id="Caminho_61" data-name="Caminho 61" d="M715.86,788.285H185.14a.64.64,0,0,1,0-1.28H715.86a.64.64,0,0,1,0,1.28Z" transform="translate(-184.5 -337.59)" fill="#cbcbcb"/>
    <path id="Caminho_62" data-name="Caminho 62" d="M502.784,568.877a8.354,8.354,0,0,0-1.127-12.76l8.064-28.571-14.7,4.676-5.4,26.415a8.4,8.4,0,0,0,13.168,10.241Z" transform="translate(-293.848 -244.235)" fill="#ffb7b7"/>
    <path id="Caminho_63" data-name="Caminho 63" d="M506.961,502.24a3.824,3.824,0,0,1-.8.067l-14.1-.283a3.738,3.738,0,0,1-3.623-4.285l14.306-96.663a11.851,11.851,0,0,1,11.688-10.062h0a11.788,11.788,0,0,1,11.415,14.613L515.706,446.7l-5.751,52.279a3.717,3.717,0,0,1-2.994,3.261Z" transform="translate(-293.844 -195.11)" fill="#3f3d56"/>
    <path id="Caminho_64" data-name="Caminho 64" d="M342.1,701.09h7.849l3.734-30.273H342.1Z" transform="translate(-123.091 -241.365)" fill="#ffb7b7"/>
    <path id="Caminho_65" data-name="Caminho 65" d="M523.478,799.108h15.457a9.851,9.851,0,0,1,9.85,9.85v.321H523.478Z" transform="translate(-306.467 -341.944)" fill="#2f2e41"/>
    <path id="Caminho_66" data-name="Caminho 66" d="M394.382,697.215l7.8.875,7.085-29.668-11.512-1.291Z" transform="translate(-141.902 -240.038)" fill="#ffb7b7"/>
    <path id="Caminho_67" data-name="Caminho 67" d="M575.583,794.8l15.361,1.722h0a9.851,9.851,0,0,1,8.691,10.887l-.036.318-25.15-2.82Z" transform="translate(-324.807 -340.395)" fill="#2f2e41"/>
    <path id="Caminho_68" data-name="Caminho 68" d="M512.189,538.357s-10.76,23.821-1.258,39.293l5.661,120.464h13L542.2,600.8l22.407,28.809-13.651,67.238,15.9.892,22.081-68.13s-16.964-75.125-22.566-76.935l-3.682-17.174Z" transform="translate(-300.542 -247.098)" fill="#2f2e41"/>
    <path id="Caminho_69" data-name="Caminho 69" d="M506.607,572.442s-9.694,11.125,15.914,14.966,52.5-1.921,53.136-9.6S506.607,572.442,506.607,572.442Z" transform="translate(-299.749 -260.271)" fill="#cbcbcb"/>
    <path id="Caminho_70" data-name="Caminho 70" d="M692.062,352.677a7.433,7.433,0,0,1-9,6.994l-9.68,13.959-9.918-3.813L677.411,350.3a7.474,7.474,0,0,1,14.651,2.381Z" transform="translate(-356.835 -178.51)" fill="#ffb7b7"/>
    <path id="Caminho_71" data-name="Caminho 71" d="M552.635,381.632l-13.686-6.191-17.535,1.253s-21.14,24.715-12.817,48.4l-5.122,82.585c32.65,8.963,47.492-7.847,71.061-.64l-7.281-91.784Z" transform="translate(-299.27 -189.506)" fill="#3f3d56"/>
    <path id="Caminho_72" data-name="Caminho 72" d="M565.976,385.542l9.147-6.014s12.706-1.921,17.784,3.007c0,0,17.238,1.443,21.4,5.746l4.584,1.033L634.121,369.6l9.319,5.063L630,411.15l-40.25,2Z" transform="translate(-321.758 -187.403)" fill="#3f3d56"/>
    <circle id="Elipse_12" data-name="Elipse 12" cx="21.603" cy="21.603" r="21.603" transform="translate(207.693 151.439) rotate(-28.663)" fill="#ffb7b7"/>
    <path id="Caminho_73" data-name="Caminho 73" d="M521.028,302.268c3.856-6.936,8.675-11.426,16.609-11.264s14.8-.152,18.366,6.936a11.656,11.656,0,0,0,1.372-5.748,6.583,6.583,0,0,1,2.906,6.623,4.808,4.808,0,0,0,2.374-3.947c2.648.881,3.336,4.613,2,7.061s-3.967,3.863-6.488,5.06-1.357,7.526-3,9.779a26.378,26.378,0,0,0-2.449,5.287.346.346,0,0,1-.157.164,4.654,4.654,0,0,0-2.582,4.766.776.776,0,0,1-.025.454c-2.247,4.234-4.673,8.663-8.746,11.189a14.5,14.5,0,0,1-10.9,1.684,18.934,18.934,0,0,1-10.358-7.16,36.38,36.38,0,0,1-5.519-11.521c-1.113-3.631-1.922-7.513-1.04-11.206s3.871-7.114,7.658-7.4" transform="translate(-302.701 -159.123)" fill="#2f2e41"/>
  </g>
</svg>
