<svg xmlns="http://www.w3.org/2000/svg" width="532" height="456.341" viewBox="0 0 532 456.341">
  <g id="ilustracaoExportarCheck" transform="translate(0 -0.002)">
    <path id="Caminho_9" data-name="Caminho 9" d="M796.641,461.181l-244.78,82.73a12.146,12.146,0,0,1-15.378-7.609L423.1,200.816a12.146,12.146,0,0,1,7.609-15.378l244.78-82.729a12.146,12.146,0,0,1,15.378,7.609L804.25,445.8a12.146,12.146,0,0,1-7.609,15.378Z" transform="translate(-272.889 -102.068)" fill="#e6e6e6"/>
    <path id="Caminho_10" data-name="Caminho 10" d="M795.077,459.669,557.752,539.878a8.207,8.207,0,0,1-10.39-5.141L436.5,206.706a8.207,8.207,0,0,1,5.141-10.391l237.325-80.209a8.207,8.207,0,0,1,10.391,5.141L800.218,449.278A8.207,8.207,0,0,1,795.077,459.669Z" transform="translate(-277.572 -106.751)" fill="#fff"/>
    <path id="Caminho_11" data-name="Caminho 11" d="M750.552,597.825H492.169a12.146,12.146,0,0,1-12.132-12.132V231.564a12.146,12.146,0,0,1,12.132-12.132H750.552a12.146,12.146,0,0,1,12.132,12.132V585.692A12.146,12.146,0,0,1,750.552,597.825Z" transform="translate(-292.707 -142.465)" fill="#ccc"/>
    <path id="Caminho_12" data-name="Caminho 12" d="M750.747,594.086H500.234a8.207,8.207,0,0,1-8.2-8.2V239.629a8.207,8.207,0,0,1,8.2-8.2H750.747a8.207,8.207,0,0,1,8.2,8.2V585.888a8.207,8.207,0,0,1-8.2,8.2Z" transform="translate(-296.838 -146.595)" fill="#fff"/>
    <path id="Caminho_13" data-name="Caminho 13" d="M715.556,375.692H550.1a5.256,5.256,0,0,1,0-10.511H715.556a5.256,5.256,0,0,1,0,10.511Z" transform="translate(-315.014 -192.633)" fill="#ccc"/>
    <path id="Caminho_14" data-name="Caminho 14" d="M737.235,402.739H550.1a5.256,5.256,0,0,1,0-10.511H737.235a5.256,5.256,0,1,1,0,10.511Z" transform="translate(-315.014 -201.942)" fill="#ccc"/>
    <path id="Caminho_15" data-name="Caminho 15" d="M715.556,496.9H550.1a5.256,5.256,0,1,1,0-10.511H715.556a5.256,5.256,0,1,1,0,10.511Z" transform="translate(-315.014 -234.355)" fill="#16e584"/>
    <path id="Caminho_16" data-name="Caminho 16" d="M737.236,523.953H550.1a5.256,5.256,0,1,1,0-10.511H737.236a5.256,5.256,0,1,1,0,10.511Z" transform="translate(-315.014 -243.665)" fill="#ccc"/>
    <path id="Caminho_17" data-name="Caminho 17" d="M715.556,618.118H550.1a5.256,5.256,0,1,1,0-10.511H715.556a5.256,5.256,0,0,1,0,10.511Z" transform="translate(-315.014 -276.077)" fill="#ccc"/>
    <path id="Caminho_18" data-name="Caminho 18" d="M737.235,645.166H550.1a5.256,5.256,0,0,1,0-10.511H737.235a5.256,5.256,0,1,1,0,10.511Z" transform="translate(-315.014 -285.388)" fill="#ccc"/>
    <path id="Caminho_19" data-name="Caminho 19" d="M377.363,451.011H339.327a2.954,2.954,0,0,1-2.951-2.951V431.665a21.969,21.969,0,1,1,43.938,0V448.06A2.954,2.954,0,0,1,377.363,451.011Z" transform="translate(-243.258 -207.955)" fill="#2f2e41"/>
    <path id="Caminho_20" data-name="Caminho 20" d="M474.8,589.728a6.595,6.595,0,0,1-6.079-8.081l-19.822-12.5,11.094-5.022,17.122,12.642a6.63,6.63,0,0,1-2.315,12.963Z" transform="translate(-281.99 -261.11)" fill="#ffb8b8"/>
    <path id="Caminho_21" data-name="Caminho 21" d="M433.784,553.037a3.538,3.538,0,0,1-1.849-.734l-54.529-42.267-7.031-12.5a6.937,6.937,0,0,1,.609-7.732h0a6.962,6.962,0,0,1,10.183-.792l60.779,49.3a3.563,3.563,0,0,1,.911,5.012l-5.827,8.228a3.535,3.535,0,0,1-2.386,1.467A3.628,3.628,0,0,1,433.784,553.037Z" transform="translate(-254.652 -234.619)" fill="#2f2e41"/>
    <path id="Caminho_22" data-name="Caminho 22" d="M77.194,654.986,84.647,658,99.825,630.69l-11-4.451Z" transform="translate(-26.571 -215.555)" fill="#ffb8b8"/>
    <path id="Caminho_23" data-name="Caminho 23" d="M268.129,767.259l14.677,5.939h0a10.09,10.09,0,0,1,5.568,13.138l-.123.3-24.031-9.724Z" transform="translate(-218.422 -331.031)" fill="#2f2e41"/>
    <path id="Caminho_24" data-name="Caminho 24" d="M209.618,666.584h8.04l3.825-31.011H209.617Z" transform="translate(-72.152 -218.768)" fill="#ffb8b8"/>
    <path id="Caminho_25" data-name="Caminho 25" d="M400.876,780.927H416.71a10.09,10.09,0,0,1,10.09,10.09v.328H400.876Z" transform="translate(-265.46 -335.735)" fill="#2f2e41"/>
    <path id="Caminho_26" data-name="Caminho 26" d="M367.045,689.691a19.069,19.069,0,0,1-8.053-2.167,3.258,3.258,0,0,1-1.751-2.289l-16.946-85.441L296.33,682.05a3.271,3.271,0,0,1-1.856,1.565c-9.469,3.164-14.633-1.814-16.414-4.1a3.221,3.221,0,0,1-.366-3.34l20.362-44.234,12.312-42.018,12.444-30.75.272.029,41.613,4.38,5.06,27.829,5.1,92.66a3.219,3.219,0,0,1-.6,2.072,8.482,8.482,0,0,1-7.212,3.549Z" transform="translate(-222.954 -259.406)" fill="#2f2e41"/>
    <circle id="Elipse_7" data-name="Elipse 7" cx="16.107" cy="16.107" r="16.107" transform="translate(104.401 210.592)" fill="#ffb8b8"/>
    <path id="Caminho_27" data-name="Caminho 27" d="M373.011,549.04c-7.012,0-15.689-4.1-25.878-12.256l-.174-.139,7.2-56.834.336-.012c10.3-.372,18.69,2.244,25.633,8.018l.06.062,5.63,7.238,0,.132.794,44.455-.02.063a14.15,14.15,0,0,1-9.041,8.629,15.7,15.7,0,0,1-4.546.645Z" transform="translate(-246.901 -232.073)" fill="#16e584"/>
    <path id="Caminho_28" data-name="Caminho 28" d="M374.177,575.414a3.581,3.581,0,0,1-3.452-2.655l-9.889-37.44-6.265,34.109a3.561,3.561,0,0,1-4,2.889l-27.281-3.807a3.567,3.567,0,0,1-2.885-4.679l13.8-40.673-3.089-23.83a17.844,17.844,0,0,1,16.953-20.122l.277-.011,13.122,31.646,2.087-8.348,3.266-17.968.488.283a29.033,29.033,0,0,1,14.5,26.465L380.98,530.3l7.331,38.856a3.573,3.573,0,0,1-2.838,4.165l-10.633,2.025A3.525,3.525,0,0,1,374.177,575.414Z" transform="translate(-237.695 -231.877)" fill="#2f2e41"/>
    <path id="Caminho_29" data-name="Caminho 29" d="M391.337,436.4H368.079l-.239-3.339-1.192,3.339h-3.581l-.473-6.618L360.23,436.4H353.3v-.328A17.4,17.4,0,0,1,370.679,418.7h3.279a17.4,17.4,0,0,1,17.378,17.379Z" transform="translate(-249.084 -211.053)" fill="#2f2e41"/>
    <path id="Caminho_30" data-name="Caminho 30" d="M717.05,797.244H195.039a.656.656,0,1,1,0-1.312H717.05a.656.656,0,1,1,0,1.312Z" transform="translate(-194.383 -340.9)" fill="#ccc"/>
    <path id="Caminho_31" data-name="Caminho 31" d="M387.537,591.826a7.339,7.339,0,0,0,8.374,7.273,12.356,12.356,0,0,0,11.327,7.419h0a12.355,12.355,0,0,0,12.355-12.355V583.458c0-2.755-2.234-3.677-4.989-3.677H399.872c-2.755,0-4.989.922-4.989,3.677v1.021A7.355,7.355,0,0,0,387.537,591.826Zm2,0a5.349,5.349,0,0,1,5.343-5.343v7.68a12.38,12.38,0,0,0,.366,2.987c-.122.008-.242.018-.366.018a5.349,5.349,0,0,1-5.343-5.343Z" transform="translate(-260.868 -266.499)" fill="#16e584"/>
    <path id="Caminho_32" data-name="Caminho 32" d="M381.061,587.62a6.595,6.595,0,0,0-9.882-2.145l-19.643-12.781.075,12.178,18.642,10.27a6.63,6.63,0,0,0,10.808-7.522Z" transform="translate(-248.477 -264.06)" fill="#ffb8b8"/>
    <path id="Caminho_33" data-name="Caminho 33" d="M348.878,565.236a2.953,2.953,0,0,1-2.087-.865L321.779,539.36A6.614,6.614,0,0,1,320,533.174c2.141-9.36,7.358-31.725,9.561-37.231a19.461,19.461,0,0,1,8.433-9.823l.1-.049,7.918,1.463.7,24.424-9.565,20.5,20.339,19.2a2.941,2.941,0,0,1,.307,3.954l-6.576,8.485a2.953,2.953,0,0,1-2.147,1.138C349,565.234,348.939,565.236,348.878,565.236Z" transform="translate(-237.562 -234.244)" fill="#2f2e41"/>
    <ellipse id="Elipse_8" data-name="Elipse 8" cx="9.181" cy="1.312" rx="9.181" ry="1.312" transform="translate(137.162 314.036)" fill="#2f2e41"/>
  </g>
</svg>
